<?xml version="1.0" encoding="UTF-8" standalone="no" ?>
<!DOCTYPE svg PUBLIC "-//W3C//DTD SVG 1.1//EN" "http://www.w3.org/Graphics/SVG/1.1/DTD/svg11.dtd">
<svg xmlns="http://www.w3.org/2000/svg" xmlns:xlink="http://www.w3.org/1999/xlink" version="1.1" width="1080" height="1080" viewBox="0 0 1080 1080" xml:space="preserve">
<desc>Created with Fabric.js 5.2.4</desc>
<defs>
</defs>
<rect x="0" y="0" width="100%" height="100%" fill="transparent"></rect>
<g transform="matrix(1 0 0 1 540 540)" id="44a443e6-350e-4a13-8869-ad869c172d23"  >
<rect style="stroke: none; stroke-width: 1; stroke-dasharray: none; stroke-linecap: butt; stroke-dashoffset: 0; stroke-linejoin: miter; stroke-miterlimit: 4; fill: rgb(255,0,0); fill-rule: nonzero; opacity: 1; visibility: hidden;" vector-effect="non-scaling-stroke"  x="-540" y="-540" rx="0" ry="0" width="1080" height="1080" />
</g>
<g transform="matrix(0 0 0 0 0 0)" id="18db26ef-5889-4458-b268-cb8bc49d5ca8"  >
</g>
<g transform="matrix(0.67 0 0 0.67 3074.7 2510.27)"  >
<path style="stroke: none; stroke-width: 1; stroke-dasharray: none; stroke-linecap: butt; stroke-dashoffset: 0; stroke-linejoin: miter; stroke-miterlimit: 4; fill: rgb(24,81,15); fill-rule: nonzero; opacity: 1;" vector-effect="non-scaling-stroke"  transform=" translate(-349.97, -350.24)" d="M 312 444.3 C 312 448.6 308.5 452.1 304.2 452.1 C 299.9 452.1 296.4 448.6 296.4 444.3 C 296.4 440 299.9 436.5 304.2 436.5 C 308.5 436.6 312 440 312 444.3 z M 394 436.6 C 389.7 436.6 386.2 440.1 386.2 444.40000000000003 C 386.2 448.70000000000005 389.7 452.20000000000005 394 452.20000000000005 C 398.3 452.20000000000005 401.8 448.70000000000005 401.8 444.40000000000003 C 401.8 440 398.3 436.6 394 436.6 z M 518.4 418.6 C 518.1 420.1 516.9 421.3 515.4 421.8 C 510.59999999999997 423.2 508.7 426 508 427.8 C 508 427.8 508 427.8 508 427.90000000000003 L 508 585.7 C 508 588.1 506.1 590 503.7 590 L 456.8 590 C 456.2 590.4 455.40000000000003 590.7 454.6 590.7 L 245.1 590.7 C 244.29999999999998 590.7 243.5 590.5 242.9 590 L 196.2 590 C 193.79999999999998 590 191.89999999999998 588.1 191.89999999999998 585.7 L 191.89999999999998 427.9 L 191.89999999999998 427.9 C 191.2 426.09999999999997 189.39999999999998 423.29999999999995 184.49999999999997 421.9 C 182.99999999999997 421.5 181.89999999999998 420.29999999999995 181.49999999999997 418.7 C 181.19999999999996 417.2 181.69999999999996 415.59999999999997 182.79999999999998 414.59999999999997 C 182.89999999999998 414.49999999999994 183.29999999999998 414.2 183.79999999999998 413.79999999999995 L 183.79999999999998 385.4 C 183.79999999999998 384.79999999999995 183.89999999999998 384.2 184.2 383.7 C 184.6 382.8 185.5 381.7 187.2 380.5 L 187.2 354.8 C 187.2 354.2 187.29999999999998 353.6 187.6 353.1 C 187.79999999999998 352.70000000000005 188 352.3 188.4 351.90000000000003 C 189.4 349.00000000000006 191.8 344.8 197.3 340.90000000000003 L 197.3 301.8 L 194.5 297.90000000000003 C 194 297.20000000000005 193.7 296.3 193.7 295.50000000000006 L 193.7 295.50000000000006 L 193.7 259.70000000000005 C 193.7 258.80000000000007 194 257.90000000000003 194.6 257.1 C 194.9 256.70000000000005 195.7 255.8 197.29999999999998 254.70000000000002 L 197.29999999999998 223 L 194.49999999999997 219.1 C 193.49999999999997 217.7 193.49999999999997 216 194.29999999999998 214.6 C 194.29999999999998 214.4 194.2 214.29999999999998 194.2 214.1 L 194.2 186.1 C 194.2 185.1 194.6 184.2 195.29999999999998 183.5 C 195.7 183 197.2 181.8 200.49999999999997 180.5 L 200.49999999999997 154.3 C 200.49999999999997 152.8 200.39999999999998 138.3 216.49999999999997 130.60000000000002 C 217.39999999999998 128.8 219.69999999999996 123.70000000000002 221.99999999999997 112.80000000000003 C 222.39999999999998 110.90000000000002 224.09999999999997 109.70000000000003 225.99999999999997 109.80000000000003 C 227.89999999999998 110.00000000000003 229.39999999999998 111.60000000000002 229.39999999999998 113.50000000000003 C 229.49999999999997 118.70000000000003 230.7 128.30000000000004 233.39999999999998 131.50000000000003 C 233.7 131.80000000000004 234.79999999999998 132.40000000000003 235.7 132.80000000000004 C 240.1 134.90000000000003 247.29999999999998 138.50000000000003 246 152.60000000000005 L 246 183 C 246.9 183.7 247.5 184.3 247.7 184.6 C 248.2 185.29999999999998 248.5 186.1 248.5 186.9 L 248.5 195.4 C 249.6 192.6 251.2 187.8 252.9 180.20000000000002 C 253.3 178.3 255.1 177.10000000000002 256.9 177.20000000000002 C 258.79999999999995 177.4 260.29999999999995 179.00000000000003 260.29999999999995 180.9 C 260.4 186.1 261.59999999999997 195.70000000000002 264.29999999999995 198.9 C 264.59999999999997 199.20000000000002 265.69999999999993 199.8 266.59999999999997 200.20000000000002 C 270.99999999999994 202.3 278.2 205.9 276.9 220.00000000000003 L 276.9 246.90000000000003 C 280.59999999999997 248.50000000000003 282 250.10000000000002 282.5 250.70000000000005 C 283 251.40000000000003 283.3 252.20000000000005 283.3 253.00000000000006 L 283.3 280.6000000000001 C 283.3 281.00000000000006 283.2 281.4000000000001 283.1 281.80000000000007 C 283.20000000000005 282.80000000000007 282.90000000000003 283.80000000000007 282.40000000000003 284.6000000000001 L 278.6 290.1000000000001 L 278.6 307.2000000000001 L 419.40000000000003 307.2000000000001 L 419.40000000000003 288.2000000000001 L 415.6 282.7000000000001 C 415 281.9000000000001 414.8 280.9000000000001 414.90000000000003 279.9000000000001 C 414.8 279.5000000000001 414.70000000000005 279.1000000000001 414.70000000000005 278.7000000000001 L 414.70000000000005 251.1000000000001 C 414.70000000000005 250.3000000000001 415.00000000000006 249.5000000000001 415.50000000000006 248.8000000000001 C 415.90000000000003 248.2000000000001 417.50000000000006 246.6000000000001 421.1000000000001 245.00000000000009 L 421.1000000000001 218.10000000000008 C 419.80000000000007 204.00000000000009 427.00000000000006 200.50000000000009 431.4000000000001 198.30000000000007 C 432.30000000000007 197.90000000000006 433.4000000000001 197.30000000000007 433.7000000000001 197.00000000000006 C 436.5000000000001 193.70000000000005 437.6000000000001 184.20000000000005 437.7000000000001 179.00000000000006 C 437.7000000000001 177.10000000000005 439.2000000000001 175.50000000000006 441.1000000000001 175.30000000000007 C 443.00000000000006 175.10000000000008 444.7000000000001 176.40000000000006 445.1000000000001 178.30000000000007 C 447.50000000000006 189.80000000000007 450.00000000000006 194.90000000000006 450.80000000000007 196.40000000000006 C 450.9000000000001 196.50000000000006 451.1000000000001 196.60000000000005 451.20000000000005 196.70000000000007 L 451.20000000000005 186.90000000000006 C 451.20000000000005 186.10000000000005 451.50000000000006 185.30000000000007 452.00000000000006 184.60000000000005 C 452.20000000000005 184.30000000000004 452.80000000000007 183.70000000000005 453.70000000000005 183.00000000000006 L 453.70000000000005 152.60000000000005 C 452.40000000000003 138.50000000000006 459.6 135.00000000000006 464.00000000000006 132.80000000000004 C 464.90000000000003 132.40000000000003 466.00000000000006 131.80000000000004 466.30000000000007 131.50000000000003 C 469.1000000000001 128.20000000000002 470.20000000000005 118.70000000000003 470.30000000000007 113.50000000000003 C 470.30000000000007 111.60000000000002 471.80000000000007 110.00000000000003 473.70000000000005 109.80000000000003 C 475.6 109.60000000000002 477.30000000000007 110.90000000000002 477.70000000000005 112.80000000000003 C 480.00000000000006 123.60000000000002 482.30000000000007 128.70000000000002 483.20000000000005 130.60000000000002 C 499.30000000000007 138.3 499.30000000000007 152.8 499.20000000000005 154.3 L 499.20000000000005 180.5 C 502.50000000000006 181.8 504.00000000000006 183.1 504.40000000000003 183.5 C 505.1 184.2 505.50000000000006 185.1 505.50000000000006 186.1 L 505.50000000000006 214.1 C 505.50000000000006 214.29999999999998 505.50000000000006 214.4 505.40000000000003 214.6 C 506.20000000000005 216 506.1 217.7 505.20000000000005 219.1 L 502.40000000000003 223 L 502.40000000000003 254.7 C 504.00000000000006 255.79999999999998 504.8 256.7 505.1 257.09999999999997 C 505.70000000000005 257.79999999999995 506 258.7 506 259.7 L 506 295.5 L 506 295.5 C 506 296.3 505.8 297.2 505.2 297.9 L 502.4 301.79999999999995 L 502.4 340.9 C 508 344.79999999999995 510.29999999999995 349 511.29999999999995 351.9 C 511.59999999999997 352.29999999999995 511.9 352.7 512.0999999999999 353.09999999999997 C 512.3 353.59999999999997 512.4999999999999 354.2 512.4999999999999 354.79999999999995 L 512.4999999999999 380.49999999999994 C 514.1999999999999 381.59999999999997 515.0999999999999 382.79999999999995 515.4999999999999 383.69999999999993 C 515.6999999999999 384.19999999999993 515.8999999999999 384.79999999999995 515.8999999999999 385.3999999999999 L 515.8999999999999 413.7999999999999 C 516.3999999999999 414.1999999999999 516.6999999999998 414.3999999999999 516.8999999999999 414.4999999999999 C 518.2 415.5 518.8 417.1 518.4 418.6 z M 507.6 409.8 L 507.6 387.3 C 505.8 386.3 500.40000000000003 384.2 486.5 383.6 C 480.6 383.3 475.1 383.6 470 384.40000000000003 C 462.6 385.50000000000006 456.9 387.3 453.9 389.40000000000003 L 453.9 410.3 C 459.2 408.6 467.09999999999997 407.5 477.7 407 C 491.8 406.2 501.4 407.9 507.6 409.8 z M 504.9 417.9 C 499.7 416.29999999999995 491.2 414.7 478.09999999999997 415.4 C 467.79999999999995 415.9 461.7 416.9 458.09999999999997 417.9 C 459.59999999999997 419.4 460.79999999999995 421.29999999999995 461.4 423.59999999999997 L 500.7 423.59999999999997 C 501.5 421.8 502.8 419.8 504.9 417.9 z M 307.5 518.8 L 307.5 582.3 L 392.2 582.3 L 392.2 521.0999999999999 C 392.2 520.0999999999999 393 502.4999999999999 379 495.0999999999999 C 370.8 490.7999999999999 354.9 481.8999999999999 349.2 478.69999999999993 C 345.5 480.99999999999994 336.9 485.8999999999999 321.9 492.69999999999993 C 304.59999999999997 500.49999999999994 307.29999999999995 517.4 307.4 518.1999999999999 C 307.5 518.3 307.5 518.6 307.5 518.8 z M 400.3 582.3 L 402.6 582.3 L 402.6 506.9 C 402.6 506.4 403.70000000000005 483.7 386.1 474.4 C 375.90000000000003 469 355.90000000000003 457.79999999999995 349.3 454.09999999999997 C 345.1 456.7 334.6 462.9 315.6 471.4 C 293.8 481.2 297.3 502.5 297.40000000000003 503.4 C 297.40000000000003 503.59999999999997 297.50000000000006 503.9 297.50000000000006 504.09999999999997 L 297.50000000000006 582.3 L 299.40000000000003 582.3 L 299.40000000000003 519.1999999999999 C 298.00000000000006 510.8999999999999 300.3 493.5999999999999 318.6 485.29999999999995 C 338.5 476.29999999999995 346.70000000000005 470.69999999999993 346.8 470.59999999999997 C 348.1 469.7 349.7 469.59999999999997 351.1 470.4 C 351.3 470.5 372.90000000000003 482.59999999999997 382.90000000000003 487.9 C 401.50000000000006 497.79999999999995 400.40000000000003 520.3 400.3 521.3 L 400.3 582.3 z M 410.7 582.3 L 416.09999999999997 582.3 L 416.09999999999997 426.7 L 285.8 426.7 L 285.8 582.3 L 289.5 582.3 L 289.5 504.4 C 289 500.79999999999995 286.6 475.7 312.4 464.09999999999997 C 336.7 453.09999999999997 346.79999999999995 446.2 346.9 446.09999999999997 C 348.2 445.2 349.79999999999995 445.09999999999997 351.2 445.9 C 351.5 446 377.8 460.79999999999995 389.9 467.29999999999995 C 412.09999999999997 479.09999999999997 410.79999999999995 505.99999999999994 410.7 507.19999999999993 L 410.7 582.3 z M 238.6 423.6 C 239.2 421.3 240.4 419.40000000000003 241.9 417.90000000000003 C 238.3 417.00000000000006 232.20000000000002 416.00000000000006 221.9 415.40000000000003 C 208.8 414.70000000000005 200.3 416.3 195.1 417.90000000000003 C 197.2 419.70000000000005 198.5 421.8 199.4 423.6 L 238.6 423.6 z M 205.9 300.3 L 205.9 343 C 205.9 344 205.5 344.9 204.9 345.7 C 207.5 345.4 210.4 345.09999999999997 213.8 345 C 219.5 344.8 225 345 230.10000000000002 345.8 C 232.40000000000003 346.2 234.50000000000003 346.6 236.50000000000003 347 C 236.40000000000003 346.7 236.40000000000003 346.3 236.40000000000003 346 L 236.40000000000003 300.2 C 236.40000000000003 299.09999999999997 236.80000000000004 298 237.60000000000002 297.2 L 238.20000000000002 296.5 C 235.3 295.4 230.4 294.1 222.60000000000002 293.6 C 213.3 293.1 207.40000000000003 294.8 204.20000000000002 296.3 L 205.20000000000002 297.7 C 205.6 298.5 205.9 299.4 205.9 300.3 z M 202.3 261.3 L 202.3 288 C 206.8 286.3 213.5 284.8 223 285.3 C 231.1 285.8 236.7 287.1 240.6 288.5 L 240.6 262.2 C 238.9 260.8 233.6 257.3 220.29999999999998 257.59999999999997 C 209.4 257.6 204.3 260.1 202.3 261.3 z M 239 209 C 239.5 209.1 240 209.2 240.5 209.3 C 240.7 208.70000000000002 240.9 208.20000000000002 241.1 207.60000000000002 L 241.1 188.40000000000003 C 239.2 187.20000000000005 233.6 184.70000000000005 220.29999999999998 184.70000000000005 C 209.29999999999998 184.80000000000004 203.99999999999997 186.70000000000005 201.79999999999998 187.80000000000004 L 201.79999999999998 209.30000000000004 C 206.29999999999998 207.50000000000003 213.2 205.80000000000004 222.99999999999997 206.40000000000003 C 230.1 206.7 235.3 207.8 239 209 z M 244.9 254.7 C 247.3 256.4 248.3 257.9 248.6 258.3 C 249 259 249.2 259.7 249.2 260.5 L 249.2 273.5 C 251.7 273.3 254.29999999999998 273.3 256.9 273.5 C 259.9 273.7 262.5 273.9 264.79999999999995 274.2 C 268.49999999999994 274.4 272.19999999999993 274.9 275.9 275.59999999999997 L 275.9 254.59999999999997 C 275 254.09999999999997 273.5 253.29999999999995 270.79999999999995 252.49999999999997 L 269.49999999999994 252.49999999999997 L 269.49999999999994 252.19999999999996 C 266.19999999999993 251.39999999999995 261.59999999999997 250.89999999999995 255.09999999999994 250.89999999999995 C 251.29999999999993 250.89999999999995 247.89999999999995 251.19999999999996 244.79999999999993 251.69999999999996 L 244.9 254.7 L 244.9 254.7 z M 433.5 272.2 C 435.8 271.9 438.4 271.7 441.4 271.5 C 444.7 271.3 447.9 271.4 450.9 271.7 L 450.9 260.5 C 450.9 259.7 451.09999999999997 259 451.5 258.3 C 451.7 257.90000000000003 452.7 256.40000000000003 455.2 254.70000000000002 L 455.2 250 C 451.8 249.3 447.8 249 443.2 248.9 C 436.7 248.9 432.09999999999997 249.4 428.8 250.20000000000002 L 428.8 250.50000000000003 L 427.6 250.50000000000003 C 424.90000000000003 251.20000000000002 423.3 252.00000000000003 422.40000000000003 252.60000000000002 L 422.40000000000003 273.6 C 426 272.9 429.8 272.4 433.5 272.2 z M 460.9 209 C 464.7 207.8 469.9 206.7 477 206.3 C 486.8 205.70000000000002 493.7 207.4 498.2 209.20000000000002 L 498.2 187.70000000000002 C 496.09999999999997 186.70000000000002 490.8 184.70000000000002 479.7 184.60000000000002 C 466.8 184.50000000000003 460.9 187.00000000000003 458.9 188.3 L 458.9 209.3 C 459.6 209.2 460.2 209.1 460.9 209 z M 479.7 257.5 C 466.7 257.2 461.2 260.7 459.4 262.2 L 459.4 288.5 C 463.29999999999995 287.1 468.9 285.8 477 285.3 C 486.4 284.8 493.2 286.3 497.7 288 L 497.7 261.3 C 495.8 260.1 490.7 257.6 479.7 257.5 z M 494.1 343 L 494.1 300.3 C 494.1 299.40000000000003 494.40000000000003 298.6 494.90000000000003 297.90000000000003 L 495.8 296.6 C 492.5 295.1 486.6 293.40000000000003 477.40000000000003 293.90000000000003 C 469.6 294.3 464.70000000000005 295.6 461.8 296.8 L 462.40000000000003 297.5 C 463.20000000000005 298.3 463.6 299.4 463.6 300.5 L 463.6 346 C 463.6 346.3 463.6 346.7 463.5 347 C 465.5 346.5 467.6 346.1 469.9 345.8 C 475 345 480.4 344.8 486.2 345 C 489.59999999999997 345.1 492.5 345.4 495.09999999999997 345.7 C 494.5 345 494.1 344 494.1 343 z M 251.3 356.4 L 251.3 359.7 L 448.70000000000005 359.7 L 448.70000000000005 356.4 C 448.70000000000005 356.29999999999995 448.70000000000005 356.2 448.70000000000005 356.09999999999997 L 251.3 356.09999999999997 C 251.3 356.2 251.3 356.3 251.3 356.4 z M 455.1 336.6 L 244.9 336.6 L 244.9 344.20000000000005 C 245.8 345.1 246.9 346.30000000000007 247.9 347.80000000000007 L 452 347.80000000000007 L 452.2 347.80000000000007 C 453.2 346.30000000000007 454.4 345.1000000000001 455.2 344.20000000000005 L 455.2 336.6 L 455.1 336.6 z M 455.1 315.2 L 244.9 315.2 L 244.9 328.3 L 455.20000000000005 328.3 L 455.20000000000005 315.2 L 455.1 315.2 z M 251.3 382.5 C 252.10000000000002 383.1 252.8 383.7 253.4 384.3 C 254.20000000000002 385.1 254.6 386.2 254.6 387.3 L 254.6 403.5 L 259.9 403.5 L 259.9 394.2 C 259.4 390.8 260.09999999999997 384.9 265.59999999999997 382.59999999999997 L 269.7 380.9 C 270.8 380.4 272 380.5 273.09999999999997 381 L 276.4 382.6 C 278.79999999999995 383.40000000000003 282.7 386.1 282.5 391.8 C 282.4 394.6 282.4 400.1 282.4 403.6 L 286.29999999999995 403.6 L 286.29999999999995 394.3 C 285.79999999999995 390.90000000000003 286.49999999999994 385 291.99999999999994 382.7 L 296.09999999999997 381 C 297.2 380.5 298.4 380.6 299.49999999999994 381.1 L 302.79999999999995 382.70000000000005 C 305.19999999999993 383.50000000000006 309.09999999999997 386.20000000000005 308.9 391.90000000000003 C 308.79999999999995 394.70000000000005 308.79999999999995 400.20000000000005 308.79999999999995 403.70000000000005 L 312.79999999999995 403.70000000000005 L 312.79999999999995 394.40000000000003 C 312.29999999999995 391.00000000000006 312.99999999999994 385.1 318.49999999999994 382.8 L 322.59999999999997 381.1 C 323.7 380.6 324.9 380.70000000000005 325.99999999999994 381.20000000000005 L 329.29999999999995 382.80000000000007 C 331.69999999999993 383.6000000000001 335.59999999999997 386.30000000000007 335.4 392.00000000000006 C 335.29999999999995 394.80000000000007 335.29999999999995 400.30000000000007 335.29999999999995 403.80000000000007 L 338.69999999999993 403.80000000000007 L 338.69999999999993 394.50000000000006 C 338.19999999999993 391.1000000000001 338.8999999999999 385.20000000000005 344.3999999999999 382.90000000000003 L 348.49999999999994 381.20000000000005 C 349.59999999999997 380.70000000000005 350.79999999999995 380.80000000000007 351.8999999999999 381.30000000000007 L 355.19999999999993 382.9000000000001 C 357.5999999999999 383.7000000000001 361.49999999999994 386.4000000000001 361.29999999999995 392.1000000000001 C 361.19999999999993 394.9000000000001 361.19999999999993 400.4000000000001 361.19999999999993 403.9000000000001 L 365.49999999999994 403.9000000000001 L 365.49999999999994 394.6000000000001 C 364.99999999999994 391.2000000000001 365.69999999999993 385.30000000000007 371.19999999999993 383.00000000000006 L 375.29999999999995 381.30000000000007 C 376.4 380.9000000000001 377.59999999999997 380.9000000000001 378.69999999999993 381.4000000000001 L 381.99999999999994 383.0000000000001 C 384.3999999999999 383.8000000000001 388.29999999999995 386.5000000000001 388.09999999999997 392.2000000000001 C 387.99999999999994 395.0000000000001 387.99999999999994 400.5000000000001 387.99999999999994 404.0000000000001 L 391.69999999999993 404.0000000000001 L 391.69999999999993 394.7000000000001 C 391.19999999999993 391.3000000000001 391.8999999999999 385.4000000000001 397.3999999999999 383.1000000000001 L 401.49999999999994 381.4000000000001 C 402.59999999999997 380.9000000000001 403.79999999999995 381.0000000000001 404.8999999999999 381.5000000000001 L 408.19999999999993 383.10000000000014 C 410.5999999999999 383.90000000000015 414.49999999999994 386.60000000000014 414.29999999999995 392.3000000000001 C 414.19999999999993 395.10000000000014 414.19999999999993 400.60000000000014 414.19999999999993 404.10000000000014 L 417.8999999999999 404.10000000000014 L 417.8999999999999 394.8000000000001 C 417.3999999999999 391.40000000000015 418.0999999999999 385.5000000000001 423.5999999999999 383.2000000000001 L 427.69999999999993 381.5000000000001 C 428.79999999999995 381.0000000000001 429.99999999999994 381.10000000000014 431.0999999999999 381.60000000000014 L 434.3999999999999 383.20000000000016 C 436.7999999999999 384.00000000000017 440.69999999999993 386.70000000000016 440.49999999999994 392.40000000000015 C 440.3999999999999 395.20000000000016 440.3999999999999 400.70000000000016 440.3999999999999 404.20000000000016 L 445.7999999999999 404.20000000000016 L 445.7999999999999 388 C 445.7999999999999 386.9 446.1999999999999 385.8 446.9999999999999 385 C 447.5999999999999 384.4 448.2999999999999 383.8 449.0999999999999 383.2 L 449.0999999999999 368.5 L 251.3 368.5 L 251.3 382.5 z M 425.8 393.8 L 425.8 401.7 L 431.7 402.09999999999997 C 431.7 398.59999999999997 431.7 393.9 431.8 391.4 C 431.8 390.59999999999997 431.6 390.5 431.40000000000003 390.4 C 431.1 390.29999999999995 431.00000000000006 390.29999999999995 430.8 390.2 L 428.90000000000003 389.3 L 426.50000000000006 390.3 C 425.70000000000005 390.6 425.80000000000007 392.7 425.90000000000003 393.2 C 425.8 393.4 425.8 393.6 425.8 393.8 z M 399.7 393.8 L 399.7 401.7 L 405.5 402.09999999999997 C 405.5 398.59999999999997 405.5 393.9 405.6 391.4 C 405.6 390.59999999999997 405.40000000000003 390.5 405.20000000000005 390.4 C 404.90000000000003 390.29999999999995 404.80000000000007 390.29999999999995 404.6 390.2 L 402.70000000000005 389.3 L 400.30000000000007 390.3 C 399.50000000000006 390.6 399.6000000000001 392.7 399.70000000000005 393.2 C 399.7 393.4 399.7 393.6 399.7 393.8 z M 373.6 393.8 L 373.6 401.7 L 379.40000000000003 402.09999999999997 C 379.40000000000003 398.59999999999997 379.40000000000003 393.9 379.50000000000006 391.4 C 379.50000000000006 390.59999999999997 379.30000000000007 390.5 379.1000000000001 390.4 C 378.80000000000007 390.29999999999995 378.7000000000001 390.29999999999995 378.50000000000006 390.2 L 376.6000000000001 389.3 L 374.2000000000001 390.3 C 373.4000000000001 390.6 373.5000000000001 392.7 373.6000000000001 393.2 C 373.6 393.4 373.6 393.6 373.6 393.8 z M 346.9 393.8 L 346.9 401.7 L 352.7 402.09999999999997 C 352.7 398.59999999999997 352.7 393.9 352.8 391.4 C 352.8 390.59999999999997 352.6 390.5 352.40000000000003 390.4 C 352.1 390.29999999999995 352.00000000000006 390.29999999999995 351.8 390.2 L 349.90000000000003 389.3 L 347.50000000000006 390.3 C 346.70000000000005 390.6 346.80000000000007 392.7 346.90000000000003 393.2 C 346.8 393.4 346.9 393.6 346.9 393.8 z M 321 393.8 L 321 401.7 L 326.9 402.09999999999997 C 326.9 398.59999999999997 326.9 393.9 327 391.4 C 327 390.59999999999997 326.8 390.5 326.6 390.4 C 326.3 390.29999999999995 326.20000000000005 390.29999999999995 326 390.2 L 324.1 389.3 L 321.70000000000005 390.3 C 320.90000000000003 390.6 321.00000000000006 392.7 321.1 393.2 C 321 393.4 321 393.6 321 393.8 z M 294.6 393.8 L 294.6 401.7 L 300.40000000000003 402.09999999999997 C 300.40000000000003 398.59999999999997 300.40000000000003 393.9 300.50000000000006 391.4 C 300.50000000000006 390.59999999999997 300.30000000000007 390.5 300.1000000000001 390.4 C 299.80000000000007 390.29999999999995 299.7000000000001 390.29999999999995 299.50000000000006 390.2 L 297.6000000000001 389.3 L 295.2000000000001 390.3 C 294.4000000000001 390.6 294.5000000000001 392.7 294.6000000000001 393.2 C 294.5 393.4 294.6 393.6 294.6 393.8 z M 268.3 393.8 L 268.3 401.7 L 274.2 402.09999999999997 C 274.2 398.59999999999997 274.2 393.9 274.3 391.4 C 274.3 390.59999999999997 274.1 390.5 273.90000000000003 390.4 C 273.6 390.29999999999995 273.50000000000006 390.29999999999995 273.3 390.2 L 271.40000000000003 389.3 L 269.00000000000006 390.3 C 268.20000000000005 390.6 268.30000000000007 392.7 268.40000000000003 393.2 C 268.2 393.4 268.3 393.6 268.3 393.8 z M 254.4 418.4 L 445.6 418.4 C 445.5 418.2 445.5 417.9 445.5 417.7 L 445.3 417.7 L 445.3 411.8 L 254.7 411.8 L 254.7 417.7 L 254.5 417.7 C 254.5 417.9 254.5 418.2 254.4 418.4 z M 277.2 459.2 L 249.2 459.2 L 249.2 487 L 277.2 487 L 277.2 459.2 z M 277.2 426.7 L 249.2 426.7 L 249.2 450.9 L 277.2 450.9 L 277.2 426.7 z M 249.3 526.1 L 277.3 526.1 L 277.3 495.3 L 249.3 495.3 L 249.3 526.1 L 249.3 526.1 z M 424.6 526.1 L 450.6 526.1 L 450.6 495.3 L 424.6 495.3 L 424.6 526.1 z M 450.5 487 L 450.5 459.2 L 424.5 459.2 L 424.5 487 L 450.5 487 z M 450.5 450.9 L 450.5 426.7 L 424.5 426.7 L 424.5 450.9 L 450.5 450.9 z M 504.2 377.1 L 504.2 356.70000000000005 C 502.5 355.80000000000007 497.59999999999997 354.1 485.9 353.6 C 480.7 353.40000000000003 475.79999999999995 353.6 471.29999999999995 354.3 C 464.9 355.3 459.99999999999994 356.8 457.29999999999995 358.5 L 457.29999999999995 378.6 C 460.59999999999997 377.5 464.4 376.70000000000005 468.79999999999995 376 C 474.4 375.1 480.49999999999994 374.8 486.99999999999994 375.1 C 494.4 375.3 500 376.1 504.2 377.1 z M 494.1 250.7 L 494.1 221.29999999999998 C 494.1 220.39999999999998 494.40000000000003 219.6 494.90000000000003 218.89999999999998 L 495.8 217.59999999999997 C 494.6 217.09999999999997 493.2 216.49999999999997 491.3 215.99999999999997 C 485.90000000000003 215.39999999999998 478.90000000000003 214.99999999999997 471.6 215.39999999999998 C 467 215.99999999999997 463.90000000000003 216.89999999999998 461.70000000000005 217.79999999999998 L 462.30000000000007 218.49999999999997 C 463.1000000000001 219.29999999999998 463.50000000000006 220.39999999999998 463.50000000000006 221.49999999999997 L 463.50000000000006 251 C 467.50000000000006 249.9 472.80000000000007 249 479.6000000000001 249.1 C 485.8 249 490.5 249.7 494.1 250.7 z M 461.5 145.7 C 464.8 144.5 469.5 143.39999999999998 476.1 143.2 C 476.40000000000003 143.2 476.8 143.2 477.1 143.2 C 482.3 143.2 486.40000000000003 144.2 489.6 145.39999999999998 C 487.8 142.29999999999998 484.70000000000005 138.99999999999997 479.3 136.59999999999997 C 478.7 136.29999999999995 478.1 135.89999999999998 477.7 135.29999999999995 C 477.5 134.99999999999994 476.59999999999997 133.59999999999997 475.2 130.39999999999995 C 474.4 132.59999999999994 473.4 134.59999999999994 472.09999999999997 136.09999999999994 C 470.79999999999995 137.59999999999994 468.99999999999994 138.49999999999994 467.29999999999995 139.29999999999993 C 464.7 140.6 462.3 141.8 461.5 145.7 z M 461.4 179.2 C 465.59999999999997 178 471.5 177 479.79999999999995 177.1 C 484.69999999999993 177.1 488.69999999999993 177.5 491.99999999999994 178.1 L 491.99999999999994 155.29999999999998 C 490.19999999999993 153.79999999999998 485.3999999999999 150.49999999999997 476.29999999999995 150.7 C 467.79999999999995 150.89999999999998 463.29999999999995 152.89999999999998 461.4 154 L 461.4 179.2 z M 428.9 211.2 C 432.2 210 436.9 208.89999999999998 443.5 208.7 C 446 208.7 448.4 209.2 450.7 210 C 449.59999999999997 206.3 448.09999999999997 203.1 446.2 201.8 C 445.8 201.5 445.4 201.20000000000002 445.2 200.8 C 445 200.5 444.09999999999997 199.10000000000002 442.7 195.9 C 441.9 198.1 440.9 200.1 439.59999999999997 201.6 C 438.29999999999995 203.1 436.49999999999994 204 434.79999999999995 204.79999999999998 C 432.1 206.1 429.7 207.3 428.9 211.2 z M 428.7 242.6 C 432.3 241.9 436.7 241.5 442.3 241.5 C 442.6 241.5 442.90000000000003 241.5 443.1 241.5 C 447.5 241.5 451.5 241.9 455 242.4 L 455 223 L 453.1 221 L 452.40000000000003 221 C 452.40000000000003 220.7 452.40000000000003 220.5 452.3 220.2 L 451.8 219.7 C 451.40000000000003 219.29999999999998 451.1 218.79999999999998 450.90000000000003 218.29999999999998 C 448.40000000000003 216.99999999999997 445.70000000000005 216.1 443.40000000000003 216.2 C 434.90000000000003 216.39999999999998 430.40000000000003 218.39999999999998 428.50000000000006 219.5 L 428.50000000000006 242.6 L 428.7 242.6 z M 428.1 286.5 L 428.1 306.8 L 455.20000000000005 306.8 L 455.20000000000005 302 L 452.00000000000006 298.7 C 451.00000000000006 297.7 450.6000000000001 296.2 450.90000000000003 294.9 L 450.90000000000003 280.29999999999995 C 448.1 279.99999999999994 445.1 279.9 441.90000000000003 280.09999999999997 C 434.20000000000005 280.49999999999994 429.1 281.4 426.00000000000006 282.2 L 427.40000000000003 284.2 C 427.8 284.8 428.1 285.7 428.1 286.5 z M 270.2 306.9 L 270.2 288.5 C 270.2 287.6 270.5 286.8 270.9 286.1 L 272.29999999999995 284.1 C 269.19999999999993 283.3 264.09999999999997 282.5 256.4 282 C 253.89999999999998 281.9 251.39999999999998 281.9 249.09999999999997 282.1 L 249.09999999999997 295 C 249.39999999999998 296.3 248.99999999999997 297.8 247.99999999999997 298.8 L 244.79999999999998 302.1 L 244.79999999999998 307 L 270.2 306.9 L 270.2 306.9 z M 269.5 244.5 L 269.5 221.5 C 267.7 220.4 263.2 218.4 254.6 218.2 C 254.5 218.2 254.5 218.2 254.4 218.2 C 252.3 218.2 250 218.89999999999998 247.8 220 L 245.70000000000002 222.2 C 245.70000000000002 222.5 245.70000000000002 222.79999999999998 245.60000000000002 223.1 L 244.8 223.1 L 244.70000000000002 223.2 L 244.70000000000002 244.2 C 247.8 243.79999999999998 251.20000000000002 243.6 254.9 243.5 C 261 243.3 265.8 243.7 269.5 244.5 z M 248.6 208.9 L 248.6 211.5 C 250.6 210.9 252.7 210.6 254.79999999999998 210.6 C 261.29999999999995 210.79999999999998 266 211.79999999999998 269.4 213.1 C 268.59999999999997 209.2 266.2 208 263.5 206.7 C 261.8 205.89999999999998 260 205 258.7 203.5 C 257.4 202 256.4 200 255.6 197.8 C 254.29999999999998 201.10000000000002 253.29999999999998 202.5 253.1 202.70000000000002 C 252.79999999999998 203.10000000000002 252.5 203.4 252.1 203.70000000000002 C 250.8 204.6 249.6 206.5 248.6 208.9 z M 210.4 145.4 C 213.8 144.1 218.3 143.1 223.9 143.20000000000002 C 230.4 143.4 235.1 144.4 238.5 145.70000000000002 C 237.7 141.8 235.3 140.60000000000002 232.6 139.3 C 230.9 138.5 229.1 137.60000000000002 227.79999999999998 136.10000000000002 C 226.49999999999997 134.60000000000002 225.49999999999997 132.60000000000002 224.7 130.40000000000003 C 223.39999999999998 133.70000000000005 222.39999999999998 135.10000000000002 222.2 135.30000000000004 C 221.79999999999998 135.90000000000003 221.29999999999998 136.30000000000004 220.6 136.60000000000005 C 215.3 138.9 212.2 142.3 210.4 145.4 z M 208.1 178.1 C 211.29999999999998 177.5 215.29999999999998 177.2 220.29999999999998 177.1 C 228.6 177 234.49999999999997 177.9 238.7 179.1 L 238.7 154 C 236.89999999999998 152.9 232.39999999999998 150.9 223.79999999999998 150.7 C 214.79999999999998 150.39999999999998 209.89999999999998 153.7 208.1 155.29999999999998 L 208.1 178.1 z M 205.9 221.3 L 205.9 250.70000000000002 C 209.5 249.70000000000002 214.20000000000002 249.00000000000003 220.3 249.00000000000003 C 227.10000000000002 249.00000000000003 232.4 249.80000000000004 236.4 250.90000000000003 L 236.4 221.40000000000003 C 236.4 220.40000000000003 236.8 219.40000000000003 237.5 218.60000000000002 L 237.2 218.3 C 237.39999999999998 218.10000000000002 237.7 217.9 237.89999999999998 217.70000000000002 C 235.79999999999998 216.9 232.7 216.10000000000002 228.39999999999998 215.50000000000003 C 221.09999999999997 215.10000000000002 214.09999999999997 215.50000000000003 208.7 216.10000000000002 C 206.89999999999998 216.60000000000002 205.39999999999998 217.10000000000002 204.2 217.70000000000002 L 205.1 219.00000000000003 C 205.6 219.6 205.9 220.5 205.9 221.3 z M 195.8 377.1 C 200 376.1 205.60000000000002 375.3 213.10000000000002 375 C 219.50000000000003 374.7 225.60000000000002 375 231.3 375.9 C 235.70000000000002 376.59999999999997 239.5 377.4 242.8 378.5 L 242.8 358.4 C 240.10000000000002 356.7 235.20000000000002 355.2 228.8 354.2 C 224.3 353.5 219.4 353.3 214.20000000000002 353.5 C 202.50000000000003 354 197.60000000000002 355.8 195.9 356.6 L 195.8 377.1 L 195.8 377.1 z M 192.4 409.8 C 198.6 407.8 208.20000000000002 406.2 222.3 406.90000000000003 C 232.9 407.40000000000003 240.8 408.50000000000006 246.10000000000002 410.20000000000005 L 246.10000000000002 389.30000000000007 C 243.10000000000002 387.20000000000005 237.3 385.50000000000006 230.00000000000003 384.30000000000007 C 224.90000000000003 383.50000000000006 219.40000000000003 383.20000000000005 213.50000000000003 383.50000000000006 C 199.70000000000002 384.1000000000001 194.30000000000004 386.20000000000005 192.40000000000003 387.20000000000005 L 192.4 409.8 L 192.4 409.8 z M 200.5 581.4 L 241 581.4 L 241 432.1 L 200.5 432.1 L 200.5 581.4 z M 249.3 582.3 L 277.3 582.3 L 277.3 534.5 L 249.3 534.5 L 249.3 582.3 L 249.3 582.3 z M 450.5 582.3 L 450.5 534.5 L 424.5 534.5 L 424.5 582.3 L 450.5 582.3 z M 499.5 432.1 L 458.8 432.1 L 458.8 581.3 L 499.5 581.3 L 499.5 432.1 z" stroke-linecap="round" />
</g>
<g transform="matrix(0 0 0 0 0 0)"  >
<g style=""   >
</g>
</g>
<g transform="matrix(0 0 0 0 0 0)"  >
<g style=""   >
</g>
</g>
<g transform="matrix(0 0 0 0 0 0)"  >
<g style=""   >
</g>
</g>
<g transform="matrix(0 0 0 0 0 0)"  >
<g style=""   >
</g>
</g>
<g transform="matrix(3.6 0 0 3.6 -1928.74 -1412.95)"  >
<rect style="stroke: none; stroke-width: 1; stroke-dasharray: none; stroke-linecap: butt; stroke-dashoffset: 0; stroke-linejoin: miter; stroke-miterlimit: 4; fill: rgb(255,255,255); fill-opacity: 0; fill-rule: nonzero; opacity: 1;" vector-effect="non-scaling-stroke"  x="-50" y="-50" rx="0" ry="0" width="100" height="100" />
</g>
<g transform="matrix(3.6 0 0 3.6 -164.74 351.05)"  >
<rect style="stroke: none; stroke-width: 1; stroke-dasharray: none; stroke-linecap: butt; stroke-dashoffset: 0; stroke-linejoin: miter; stroke-miterlimit: 4; fill: rgb(255,0,0); fill-rule: nonzero; opacity: 1; visibility: hidden;" vector-effect="non-scaling-stroke"  x="-540" y="-540" rx="0" ry="0" width="1080" height="1080" />
</g>
<g transform="matrix(12.39 0 0 12.39 540 515.31)"  >
<path style="stroke: none; stroke-width: 1; stroke-dasharray: none; stroke-linecap: butt; stroke-dashoffset: 0; stroke-linejoin: miter; stroke-miterlimit: 4; fill: rgb(24,81,15); fill-rule: nonzero; opacity: 1;" vector-effect="non-scaling-stroke"  transform=" translate(-50, -51.4)" d="M 87.6 71.25 L 83.93 71.25 L 83.93 52.82 L 84.07000000000001 52.82 C 84.40137084989848 52.82 84.67 52.551370849898476 84.67 52.22 C 84.67018286875783 51.90180533898785 84.41801184480232 51.640786208928624 84.10000000000001 51.629999999999995 C 84.15594681126693 51.29901420093486 84.15594681126693 50.96098579906513 84.10000000000001 50.629999999999995 C 84.00233142800562 49.96510864703109 83.6421163986749 49.367151698342106 83.10000000000001 48.97 L 81.06 47.4 L 81.06 46.629999999999995 C 81.06 46.29862915010152 80.79137084989848 46.029999999999994 80.46000000000001 46.029999999999994 C 80.12862915010152 46.029999999999994 79.86 46.29862915010152 79.86 46.629999999999995 L 79.86 47.41 L 77.92 48.94 C 77.37357468863452 49.3331975572965 77.01215880647331 49.93314792168411 76.92 50.599999999999994 C 76.85749753684789 50.93040341490827 76.85749753684789 51.269596585091726 76.92 51.599999999999994 L 76.78 51.599999999999994 C 76.44862915010152 51.599999999999994 76.18 51.86862915010152 76.18 52.199999999999996 C 76.18 52.53137084989847 76.44862915010152 52.8 76.78 52.8 L 77.1 52.8 L 77.1 55.9 L 68.51 55.9 L 68.51 52.8 L 68.66000000000001 52.8 C 68.99137084989849 52.8 69.26 52.53137084989847 69.26 52.199999999999996 C 69.25484518452132 51.88017023004343 68.99969493530632 51.620620838600594 68.68 51.60999999999999 C 68.73594681126693 51.27901420093486 68.73594681126693 50.940985799065125 68.68 50.60999999999999 C 68.57914904078 49.94625322345133 68.21961693314915 49.34942992478412 67.68 48.949999999999996 L 65.64 47.4 L 65.64 46.629999999999995 C 65.64 46.29862915010152 65.37137084989848 46.029999999999994 65.03999999999999 46.029999999999994 C 64.70862915010152 46.029999999999994 64.44 46.29862915010152 64.44 46.629999999999995 L 64.44 47.41 L 62.5 48.94 C 61.95357468863452 49.3331975572965 61.59215880647331 49.93314792168411 61.5 50.599999999999994 C 61.43749753684788 50.93040341490827 61.437497536847886 51.269596585091726 61.5 51.599999999999994 L 61.35 51.599999999999994 C 61.018629150101525 51.599999999999994 60.75 51.86862915010152 60.75 52.199999999999996 C 60.75 52.53137084989847 61.018629150101525 52.8 61.35 52.8 L 61.67 52.8 L 61.67 53.73 L 61.46 53.73 L 58.84 51.91 C 58.84 51.91 58.84 51.91 58.84 51.839999999999996 L 58.84 50.37 C 58.85275203607898 49.37921442755787 58.13811559634406 48.528456761206776 57.160000000000004 48.37 C 57.175002374173864 48.304177350449024 57.175002374173864 48.23582264955097 57.160000000000004 48.169999999999995 L 57.160000000000004 45.26 C 57.31321479145474 45.25206286482532 57.45704356344828 45.18374419812839 57.56 45.07 C 58.526926021399284 43.97755981501458 58.959166601730054 42.51233750880858 58.74 41.07 C 58.643098003619585 40.43789617414348 58.425838795948025 39.83024932768709 58.1 39.28 C 58.1 39.28 58.1 39.22 58.1 39.19 L 58.1 37.19 C 58.10273483560218 37.030047386001335 58.04039932945983 36.875840888232666 57.92727922061358 36.76272077938642 C 57.81415911176733 36.64960067054017 57.65995261399866 36.58726516439782 57.5 36.589999999999996 C 57.340870106096276 36.589999999999996 57.18825775835689 36.653214104219245 57.07573593128807 36.76573593128807 C 56.96321410421925 36.87825775835689 56.9 37.03087010609627 56.9 37.19 L 56.9 37.96 C 56.75254221959731 37.84203253040683 56.59899793390278 37.73188119501728 56.44 37.63 L 52 34.74 L 52 32.24 C 51.994497749453735 31.200089183821248 51.14992537239686 30.35998544368002 50.11 30.360000000000003 L 49.91 30.360000000000003 C 49.40701330046805 30.35467019829394 48.92265193018421 30.55006689964078 48.56416243721172 30.90292566759276 C 48.205672944239225 31.255784435544747 48.00263321737619 31.73699195547336 48 32.24 L 48 34.74 L 43.4 37.58 C 43.24 37.69 43.08 37.8 42.93 37.92 L 42.93 37.14 C 42.93 36.808629150101524 42.661370849898475 36.54 42.33 36.54 C 41.99862915010152 36.54 41.73 36.808629150101524 41.73 37.14 L 41.73 39.14 C 41.725316462687374 39.169817203985346 41.725316462687374 39.20018279601466 41.73 39.230000000000004 C 41.400916752249344 39.7787203020284 41.183423588058844 40.387021495623706 41.089999999999996 41.02 C 40.870833398269944 42.462337508808574 41.303073978600715 43.92755981501458 42.269999999999996 45.02 C 42.37295643655172 45.13374419812839 42.51678520854526 45.20206286482532 42.669999999999995 45.21 L 42.669999999999995 48.14 C 42.654997625826134 48.205822649550974 42.654997625826134 48.27417735044903 42.669999999999995 48.34 C 41.69586598150817 48.50287063702521 40.98647824324012 49.35243679063963 40.99999999999999 50.34 L 40.99999999999999 51.830000000000005 C 40.99999999999999 51.830000000000005 40.99999999999999 51.830000000000005 40.99999999999999 51.900000000000006 L 38.379999999999995 53.720000000000006 L 38.169999999999995 53.720000000000006 L 38.169999999999995 52.790000000000006 L 38.31999999999999 52.790000000000006 C 38.47912989390372 52.790000000000006 38.6317422416431 52.72678589578076 38.74426406871192 52.61426406871193 C 38.856785895780746 52.501742241643115 38.919999999999995 52.34912989390373 38.919999999999995 52.190000000000005 C 38.9148451845213 51.87017023004344 38.65969493530631 51.6106208386006 38.339999999999996 51.6 C 38.40111539120267 51.26946798494806 38.40111539120267 50.930532015051945 38.339999999999996 50.6 C 38.23914904077999 49.93625322345134 37.87961693314914 49.33942992478413 37.339999999999996 48.940000000000005 L 35.38 47.4 L 35.38 46.629999999999995 C 35.38 46.47087010609627 35.316785895780754 46.318257758356886 35.20426406871193 46.20573593128807 C 35.09174224164311 46.09321410421924 34.939129893903726 46.029999999999994 34.78 46.029999999999994 C 34.62087010609628 46.029999999999994 34.46825775835689 46.09321410421924 34.35573593128807 46.20573593128807 C 34.24321410421925 46.318257758356886 34.18 46.47087010609627 34.18 46.629999999999995 L 34.18 47.41 L 32.24 48.94 C 31.697036384284047 49.336376904873894 31.336587602628185 49.93472188242262 31.240000000000002 50.599999999999994 C 31.177497536847884 50.93040341490827 31.177497536847884 51.269596585091726 31.240000000000002 51.599999999999994 L 31.090000000000003 51.599999999999994 C 30.758629150101527 51.599999999999994 30.490000000000002 51.86862915010152 30.490000000000002 52.199999999999996 C 30.490000000000002 52.53137084989847 30.758629150101527 52.8 31.090000000000003 52.8 L 31.410000000000004 52.8 L 31.410000000000004 55.9 L 22.83 55.9 L 22.83 52.8 L 23.06 52.8 C 23.391370849898475 52.8 23.66 52.53137084989847 23.66 52.199999999999996 C 23.66 51.86862915010152 23.391370849898475 51.599999999999994 23.06 51.599999999999994 L 23 51.599999999999994 C 23.062502463152118 51.26959658509172 23.062502463152118 50.93040341490826 23 50.599999999999994 C 22.903412397371817 49.93472188242262 22.542963615715955 49.336376904873894 22 48.94 L 20 47.4 L 20 46.629999999999995 C 20.000000007014552 46.41564064137873 19.885640654603712 46.21756442270323 19.70000000566785 46.11038474136766 C 19.514359356731983 46.0032050600321 19.285640643268017 46.0032050600321 19.09999999433215 46.11038474136766 C 18.91435934539629 46.21756442270323 18.799999992985448 46.41564064137873 18.8 46.629999999999995 L 18.8 47.41 L 16.85 48.94 C 16.31038306685086 49.33942992478412 15.950850959220006 49.93625322345134 15.850000000000001 50.599999999999994 C 15.792297156888193 50.93083611975594 15.792297156888194 51.26916388024405 15.850000000000001 51.599999999999994 L 15.790000000000001 51.599999999999994 C 15.458629150101524 51.599999999999994 15.19 51.86862915010152 15.19 52.199999999999996 C 15.19 52.53137084989847 15.458629150101524 52.8 15.790000000000001 52.8 L 16.02 52.8 L 16.02 71.25 L 12.4 71.25 C 12.169009770219962 71.21999140930538 11.94152517119152 71.3263851895585 11.81648328812853 71.52290879946166 C 11.691441405065543 71.71943240936484 11.691441405065543 71.97056759063516 11.816483288128532 72.16709120053834 C 11.94152517119152 72.3636148104415 12.169009770219962 72.47000859069462 12.4 72.44 L 87.6 72.44 C 87.83099022978003 72.47000859069462 88.05847482880847 72.3636148104415 88.18351671187146 72.16709120053834 C 88.30855859493445 71.97056759063516 88.30855859493445 71.71943240936484 88.18351671187146 71.52290879946166 C 88.05847482880847 71.3263851895585 87.83099022978003 71.21999140930538 87.6 71.25 Z M 27.74 69 L 27.74 67.5 C 27.739999989156438 67.16862915776908 27.471370842230918 66.900000019634 27.14 66.900000019634 C 26.80862915776908 66.900000019634 26.54000001084356 67.16862915776908 26.54 67.5 L 26.54 69 L 22.83 69 L 22.83 65 L 31.49 65 L 31.49 69 Z M 20.049999999999997 69 L 20.049999999999997 67.5 C 20.05000000701455 67.28564064137873 19.93564065460371 67.08756442270322 19.750000005667847 66.98038474136767 C 19.56435935673198 66.8732050600321 19.335640643268015 66.8732050600321 19.14999999433215 66.98038474136767 C 18.964359345396286 67.08756442270322 18.849999992985445 67.28564064137873 18.849999999999998 67.5 L 18.849999999999998 69 L 17.27 69 L 17.27 65 L 21.63 65 L 21.63 69 Z M 38.65 55 L 48.14 55 C 48.12472600419997 55.136239907615995 48.12472600419997 55.273760092384 48.14 55.41 L 48.14 55.97 L 37.35 55.97 L 37.35 55 Z M 62.65 55 L 62.65 56 L 51.92 56 L 51.92 55.44 C 51.915501516258026 55.30151011207607 51.89537391910485 55.16397153152936 51.86 55.03 L 62.66 55.03 Z M 80.53999999999999 67 C 80.20862915010152 67 79.94 67.26862915010152 79.94 67.6 L 79.94 69 L 78.37 69 L 78.37 65 L 82.73 65 L 82.73 69 L 81.15 69 L 81.15 67.5 C 81.15 67.34087010609628 81.08678589578075 67.1882577583569 80.97426406871193 67.07573593128807 C 80.8617422416431 66.96321410421925 80.70912989390372 66.9 80.55 66.9 Z M 73.46 69 L 73.46 67.5 C 73.46 67.16862915010152 73.19137084989848 66.9 72.85999999999999 66.9 C 72.52862915010151 66.9 72.25999999999999 67.16862915010152 72.25999999999999 67.5 L 72.25999999999999 69 L 68.51 69 L 68.51 65 L 77.17 65 L 77.17 69 Z M 65 69 L 63 69 L 63 65 L 67.36 65 L 67.36 69 Z M 44.55 57.12 L 44.55 58.809999999999995 L 40.46 58.809999999999995 L 40.46 57.12 Z M 46.76 57.12 L 46.76 59.4 L 46.76 59.4 L 46.76 62.4 L 46.76 62.4 L 46.76 66.8 L 45.76 66.8 L 45.76 57.12 Z M 48.69 57.12 L 52.05 57.12 L 52.05 58.809999999999995 L 48 58.809999999999995 L 48 57.12 Z M 54.26 57.12 L 54.26 66.8 L 53.26 66.8 L 53.26 57.12 Z M 59.55 57.12 L 59.55 58.809999999999995 L 55.46 58.809999999999995 L 55.46 57.12 Z M 61.75 57.12 L 61.75 66.8 L 60.75 66.8 L 60.75 57.12 Z M 38.25 68 L 61.75 68 L 61.75 69 L 38.25 69 Z M 44.55 61.81 L 40.46 61.81 L 40.46 60 L 44.55 60 Z M 40.46 63 L 44.55 63 L 44.55 66.8 L 40.46 66.8 Z M 52.05 61.8 L 48 61.8 L 48 60 L 52.09 60 Z M 48 63 L 52.09 63 L 52.09 66.8 L 48 66.8 Z M 59.59 61.8 L 55.46 61.8 L 55.46 60 L 59.55 60 Z M 55.46 63 L 59.55 63 L 59.55 66.8 L 55.46 66.8 Z M 39.26 66.8 L 38.26 66.8 L 38.26 57.12 L 39.26 57.12 Z M 78.37 52.85 L 82.73 52.85 L 82.73 58.85 L 78.37 58.85 Z M 82.73 60 L 82.73 63.87 L 78.37 63.87 L 78.37 60 Z M 77.17 63.87 L 68.51 63.87 L 68.51 60 L 77.17 60 Z M 67.31 63.87 L 63 63.87 L 63 60 L 67.36 60 Z M 50.72 55.36 L 50.72 55.92 L 49.29 55.92 L 49.29 55.36 C 49.382964114204775 54.878943950147665 49.628419452006355 54.44063084693056 49.99 54.11 C 50.36097153851202 54.437694610935516 50.61687392912793 54.87588363596276 50.72 55.36 Z M 37.05 63.88 L 32.69 63.88 L 32.69 60 L 37.05 60 Z M 31.49 63.88 L 22.83 63.88 L 22.83 60 L 31.49 60 Z M 17.27 60 L 21.63 60 L 21.63 63.87 L 17.27 63.87 Z M 17.27 52.84 L 21.63 52.84 L 21.63 58.84 L 17.27 58.84 Z M 32.69 65.08 L 37.05 65.08 L 37.05 69.08 L 32.69 69.08 Z M 65.69 70.22 L 82.69 70.22 L 82.69 71.22 L 65.69 71.22 Z M 78.14 50.78 C 78.18417883323961 50.43223514292881 78.36387183319817 50.115975463001746 78.64 49.9 L 80.48 48.46 L 82.48 49.910000000000004 C 82.75178320564966 50.123939537041046 82.92792649087116 50.43668373733229 82.97 50.78 C 83.01048239953383 51.0647928283518 82.97244845862635 51.35523383164537 82.86 51.620000000000005 L 78.25 51.620000000000005 C 78.13755154137365 51.35523383164537 78.09951760046617 51.0647928283518 78.14 50.78 Z M 77.14 57.120000000000005 L 77.14 58.81 L 68.51 58.81 L 68.51 57.12 Z M 62.72 50.78 C 62.76774260120925 50.43104093460057 62.950955401352715 50.11490904415694 63.23 49.9 L 65.06 48.46 L 67.06 49.910000000000004 C 67.32888807815844 50.125000737674625 67.50151216149557 50.43788188872317 67.54 50.78 C 67.58363550118312 51.063884546734045 67.54906296600657 51.35429384221712 67.44000000000001 51.620000000000005 L 62.84000000000001 51.620000000000005 C 62.72415574867202 51.35617965787508 62.682659214520115 51.065703918811764 62.72 50.78 Z M 63 52.85 L 67.36 52.85 L 67.36 58.85 L 63 58.85 L 63 57.12 L 63.31 57.12 C 63.46912989390373 57.12 63.62174224164311 57.05678589578075 63.73426406871193 56.944264068711924 C 63.846785895780755 56.831742241643106 63.910000000000004 56.67912989390372 63.910000000000004 56.519999999999996 L 63.910000000000004 54.35 C 63.910000000000004 54.19087010609628 63.846785895780755 54.03825775835689 63.73426406871193 53.925735931288074 C 63.62174224164311 53.81321410421925 63.46912989390373 53.75 63.31 53.75 L 63 53.75 Z M 53.56 46.38 C 53.40087010609628 46.38 53.24825775835689 46.44321410421925 53.135735931288075 46.555735931288076 C 53.02321410421925 46.668257758356894 52.96 46.82087010609628 52.96 46.980000000000004 L 52.96 48.36000000000001 L 50.6 48.36000000000001 L 50.6 47 C 50.6 46.66862915010152 50.33137084989848 46.4 50 46.4 C 49.66862915010152 46.4 49.4 46.66862915010152 49.4 47 L 49.4 48.38 L 47.09 48.38 L 47.09 47 C 47.09 46.66862915010152 46.82137084989848 46.4 46.49 46.4 C 46.158629150101525 46.4 45.89 46.66862915010152 45.89 47 L 45.89 48.38 L 43.89 48.38 C 43.894825398342604 48.32343605893259 43.894825398342604 48.26656394106741 43.89 48.21 L 43.89 45.27 L 56.1 45.27 L 56.1 48.190000000000005 C 56.0951746016574 48.246563941067414 56.0951746016574 48.3034360589326 56.1 48.36000000000001 L 54.1 48.36000000000001 L 54.1 47 C 54.105385395543514 46.8391545619141 54.04592855266929 46.68288841022932 53.93498546782824 46.5663041515828 C 53.8240423829872 46.44971989293628 53.670914692644196 46.38259212835889 53.51 46.38 Z M 51.32 35.74 L 56 38.6 C 56.93882763298773 39.182516771491784 57.57486980816512 40.14754627865747 57.74 41.24 C 57.890128942403265 42.24480497708938 57.62276424285568 43.267294301034866 57 44.07 L 52 44.07 L 52 42.82 C 51.9953196538064 42.54910956431297 51.94109268115255 42.28136388683458 51.84 42.03 C 51.5541574488331 41.325228329030736 51.02073421749421 40.74913123918473 50.34 40.410000000000004 C 50.173096663284035 40.34323076316117 49.98690333671597 40.34323076316117 49.82 40.410000000000004 C 49.12583942285092 40.73533379772992 48.57205387855735 41.299769064029135 48.26 42 C 48.14646647777938 42.272800947823015 48.08539930897873 42.56456630987054 48.08 42.86 L 48.08 44.11 L 43 44.11 C 42.38077131032782 43.30576166942467 42.11705779230162 42.28342022282993 42.27 41.28 C 42.43513019183489 40.18754627865748 43.071172367012274 39.22251677149178 44.010000000000005 38.64 L 48.64000000000001 35.78 Z M 49.32 42.82 C 49.31807144493421 42.6834590062774 49.34181677053263 42.5477714314293 49.39 42.42 C 49.5223624290071 42.108261682825066 49.74533412998928 41.843482787908734 50.03 41.660000000000004 C 50.30933938378199 41.84946381571761 50.53083733442594 42.1124926321073 50.67 42.42 C 50.7143045976363 42.54880159329945 50.73793058743857 42.68380724931245 50.74 42.82 L 50.74 44.07 L 49.29 44.07 Z M 50.13 31.560000000000002 C 50.31116879498912 31.55727519271215 50.48571713785204 31.628042518515013 50.61383730966852 31.756162690331486 C 50.74195748148499 31.884282862147963 50.81272480728786 32.05883120501088 50.81 32.24 L 50.81 34.54 L 49.22 34.54 L 49.22 32.24 C 49.217275192712144 32.05883120501088 49.28804251851501 31.884282862147963 49.41616269033148 31.75616269033149 C 49.54428286214796 31.628042518515013 49.71883120501088 31.55727519271215 49.9 31.560000000000002 Z M 42.27 50.37 C 42.27 50.15517464322997 42.35533904069599 49.9491479737818 42.5072435072389 49.79724350723889 C 42.659147973781806 49.64533904069598 42.86517464322998 49.559999999999995 43.080000000000005 49.559999999999995 L 56.92 49.559999999999995 C 57.36899682215591 49.55996661114553 57.73452443022441 49.92103656545711 57.74 50.37 L 57.74 51.26 L 42.27 51.26 Z M 42.42 52.459999999999994 L 57.58 52.459999999999994 L 59.43 53.74999999999999 L 51.26 53.74999999999999 C 50.993227829966756 53.412711786060534 50.69524194048097 53.10133327232819 50.37 52.81999999999999 C 50.14895971091279 52.63910329419967 49.831040289087206 52.63910329419967 49.61 52.81999999999999 C 49.286364059142194 53.0998540806305 48.991560487115464 53.4114078556133 48.73 53.74999999999999 L 40.57 53.74999999999999 Z M 36.75 53.74999999999999 C 36.590870106096276 53.74999999999999 36.43825775835689 53.81321410421924 36.32573593128807 53.92573593128807 C 36.21321410421925 54.038257758356885 36.15 54.19087010609627 36.15 54.349999999999994 L 36.15 56.519999999999996 C 36.15 56.67912989390372 36.21321410421925 56.831742241643106 36.32573593128807 56.944264068711924 C 36.43825775835689 57.05678589578075 36.590870106096276 57.12 36.75 57.12 L 37.05 57.12 L 37.05 58.809999999999995 L 32.69 58.809999999999995 L 32.69 52.809999999999995 L 37.05 52.809999999999995 L 37.05 53.709999999999994 Z M 32.47 50.74999999999999 C 32.50982899208075 50.40080172205634 32.690413743514966 50.08297255953212 32.97 49.86999999999999 L 34.8 48.42999999999999 L 36.8 49.879999999999995 C 37.06888807815844 50.09500073767462 37.241512161495564 50.40788188872316 37.279999999999994 50.74999999999999 C 37.32851936782093 51.033780892621756 37.29378600086179 51.32554117507856 37.17999999999999 51.589999999999996 L 32.57999999999999 51.589999999999996 C 32.468539185565255 51.33553416223418 32.43043856299595 51.05497503240565 32.47 50.78 Z M 31.47 57.08999999999999 L 31.47 58.77999999999999 L 22.83 58.77999999999999 L 22.83 57.12 Z M 17.05 50.78 C 17.089828992080747 50.43080172205635 17.270413743514965 50.112972559532125 17.55 49.9 L 19.380000000000003 48.46 L 21.380000000000003 49.910000000000004 C 21.648888078158443 50.125000737674625 21.82151216149557 50.43788188872317 21.860000000000003 50.78 C 21.908519367820944 51.063780892621764 21.8737860008618 51.35554117507857 21.76 51.620000000000005 L 17.160000000000004 51.620000000000005 C 17.042828919603778 51.35654152875123 17.00461750206492 51.06474524936359 17.05 50.78 Z M 17.28 70.22 L 34.18 70.22 L 34.18 71.22 L 17.28 71.22 Z M 35.38 71.22 L 35.38 70.28 L 64.53 70.28 L 64.53 71.22 Z" stroke-linecap="round" />
</g>
<g transform="matrix(12.39 0 0 12.39 161.34 694.29)"  >
<path style="stroke: none; stroke-width: 1; stroke-dasharray: none; stroke-linecap: butt; stroke-dashoffset: 0; stroke-linejoin: miter; stroke-miterlimit: 4; fill: rgb(0,0,0); fill-rule: nonzero; opacity: 1;" vector-effect="non-scaling-stroke"  transform=" translate(-19.45, -62.04)" d="M 19.45 61.43 C 19.115418449455383 61.440798527730294 18.849825785596526 61.715244280384454 18.849999999999998 62.05 C 18.85000001084356 62.381370842230915 19.118629157769078 62.64999998036599 19.449999999999996 62.64999998036599 C 19.781370842230917 62.64999998036599 20.049999989156436 62.381370842230915 20.049999999999997 62.05 L 20.049999999999997 62.05 C 20.05834452059392 61.886639913972665 19.99849569762729 61.72714704039649 19.884743480844218 61.609603083053976 C 19.770991264061145 61.49205912571147 19.613545822550815 61.42701459266146 19.45 61.43 Z" stroke-linecap="round" />
</g>
<g transform="matrix(12.39 0 0 12.39 256.62 694.47)"  >
<path style="stroke: none; stroke-width: 1; stroke-dasharray: none; stroke-linecap: butt; stroke-dashoffset: 0; stroke-linejoin: miter; stroke-miterlimit: 4; fill: rgb(0,0,0); fill-rule: nonzero; opacity: 1;" vector-effect="non-scaling-stroke"  transform=" translate(-27.14, -62.05)" d="M 27.14 62.65 C 27.29912989390373 62.65 27.45174224164311 62.58678589578075 27.564264068711932 62.474264068711925 C 27.676785895780753 62.36174224164311 27.740000000000002 62.20912989390372 27.740000000000002 62.05 L 27.740000000000002 62.05 C 27.74002272872895 61.891774148537365 27.67649135767234 61.740169743973446 27.563672577657307 61.62923127695867 C 27.450853797642274 61.51829280994389 27.298203124366147 61.45731820424728 27.14 61.459999999999994 C 26.805418449455384 61.47079852773029 26.539825785596527 61.74524428038445 26.54 62.07999999999999 C 26.555999766964216 62.39960010702378 26.819999905059547 62.650400238214345 27.14 62.65 Z" stroke-linecap="round" />
</g>
<g transform="matrix(12.39 0 0 12.39 351.31 694.47)"  >
<path style="stroke: none; stroke-width: 1; stroke-dasharray: none; stroke-linecap: butt; stroke-dashoffset: 0; stroke-linejoin: miter; stroke-miterlimit: 4; fill: rgb(0,0,0); fill-rule: nonzero; opacity: 1;" vector-effect="non-scaling-stroke"  transform=" translate(-34.78, -62.05)" d="M 34.78 62.65 C 34.939129893903726 62.65 35.09174224164311 62.58678589578075 35.20426406871193 62.474264068711925 C 35.316785895780754 62.36174224164311 35.38 62.20912989390372 35.38 62.05 L 35.38 62.05 C 35.380022728728946 61.891774148537365 35.31649135767234 61.740169743973446 35.20367257765731 61.62923127695867 C 35.090853797642275 61.51829280994389 34.93820312436615 61.45731820424728 34.78 61.459999999999994 C 34.44541844945539 61.47079852773029 34.17982578559653 61.74524428038445 34.18 62.07999999999999 C 34.19599976696422 62.39960010702378 34.45999990505955 62.650400238214345 34.78 62.65 Z" stroke-linecap="round" />
</g>
<g transform="matrix(12.39 0 0 12.39 918.49 694.47)"  >
<path style="stroke: none; stroke-width: 1; stroke-dasharray: none; stroke-linecap: butt; stroke-dashoffset: 0; stroke-linejoin: miter; stroke-miterlimit: 4; fill: rgb(0,0,0); fill-rule: nonzero; opacity: 1;" vector-effect="non-scaling-stroke"  transform=" translate(-80.55, -62.05)" d="M 80.55 62.65 C 80.88137084989847 62.65 81.14999999999999 62.381370849898474 81.14999999999999 62.05 L 81.14999999999999 62.05 C 81.15002272872894 61.891774148537365 81.08649135767233 61.74016974397345 80.9736725776573 61.62923127695867 C 80.86085379764226 61.51829280994389 80.70820312436614 61.45731820424728 80.55 61.459999999999994 C 80.38821092112124 61.46263053418676 80.23409585655213 61.52943497168905 80.12156939377616 61.64571231655756 C 80.00904293100018 61.761989661426064 79.94732598590853 61.918211633906566 79.95 62.07999999999999 C 79.96599976696422 62.39960010702378 80.22999990505954 62.650400238214345 80.55 62.65 Z" stroke-linecap="round" />
</g>
<g transform="matrix(12.39 0 0 12.39 823.2 694.47)"  >
<path style="stroke: none; stroke-width: 1; stroke-dasharray: none; stroke-linecap: butt; stroke-dashoffset: 0; stroke-linejoin: miter; stroke-miterlimit: 4; fill: rgb(0,0,0); fill-rule: nonzero; opacity: 1;" vector-effect="non-scaling-stroke"  transform=" translate(-72.86, -62.05)" d="M 72.86 62.65 C 73.19137084989848 62.65 73.46 62.381370849898474 73.46 62.05 L 73.46 62.05 C 73.46002272872894 61.891774148537365 73.39649135767233 61.74016974397345 73.2836725776573 61.62923127695867 C 73.17085379764227 61.51829280994389 73.01820312436614 61.45731820424728 72.86 61.459999999999994 C 72.52541844945539 61.470798527730295 72.25982578559653 61.74524428038445 72.26 62.07999999999999 C 72.27599976696422 62.39960010702378 72.53999990505955 62.650400238214345 72.86 62.65 Z" stroke-linecap="round" />
</g>
<g transform="matrix(12.39 0 0 12.39 727.4 694.47)"  >
<path style="stroke: none; stroke-width: 1; stroke-dasharray: none; stroke-linecap: butt; stroke-dashoffset: 0; stroke-linejoin: miter; stroke-miterlimit: 4; fill: rgb(0,0,0); fill-rule: nonzero; opacity: 1;" vector-effect="non-scaling-stroke"  transform=" translate(-65.13, -62.05)" d="M 65.13 62.65 C 65.46137084989847 62.65 65.72999999999999 62.381370849898474 65.72999999999999 62.05 L 65.72999999999999 62.05 C 65.73002272872894 61.891774148537365 65.66649135767233 61.74016974397345 65.5536725776573 61.62923127695867 C 65.44085379764226 61.51829280994389 65.28820312436613 61.45731820424728 65.13 61.459999999999994 C 64.79541844945538 61.470798527730295 64.52982578559653 61.74524428038445 64.53 62.07999999999999 C 64.54599976696421 62.39960010702378 64.80999990505954 62.650400238214345 65.13 62.65 Z" stroke-linecap="round" />
</g>
<g transform="matrix(12.39 0 0 12.39 351.32 757.12)"  >
<path style="stroke: none; stroke-width: 1; stroke-dasharray: none; stroke-linecap: butt; stroke-dashoffset: 0; stroke-linejoin: miter; stroke-miterlimit: 4; fill: rgb(0,0,0); fill-rule: nonzero; opacity: 1;" vector-effect="non-scaling-stroke"  transform=" translate(-34.78, -67.11)" d="M 35.38 67.09 L 35.38 67.09 C 35.380022728728946 66.93177414853737 35.31649135767234 66.78016974397346 35.20367257765731 66.66923127695867 C 35.090853797642275 66.5582928099439 34.93820312436615 66.49731820424728 34.78 66.5 C 34.44541844945538 66.5107985277303 34.17982578559652 66.78524428038446 34.18 67.12 C 34.18 67.45137084989848 34.448629150101524 67.72 34.78 67.72 C 34.94446675359634 67.72020571869447 35.101807815417466 67.65289028065457 35.21523325145544 67.5337935728147 C 35.328658687493416 67.41469686497483 35.38822347277148 67.25426116356059 35.38 67.09 Z" stroke-linecap="round" />
</g>
<g transform="matrix(12.39 0 0 12.39 727.41 756.75)"  >
<path style="stroke: none; stroke-width: 1; stroke-dasharray: none; stroke-linecap: butt; stroke-dashoffset: 0; stroke-linejoin: miter; stroke-miterlimit: 4; fill: rgb(0,0,0); fill-rule: nonzero; opacity: 1;" vector-effect="non-scaling-stroke"  transform=" translate(-65.13, -67.08)" d="M 65.13 66.47 C 64.79541844945538 66.4807985277303 64.52982578559653 66.75524428038446 64.53 67.09 C 64.53 67.42137084989848 64.79862915010152 67.69 65.13 67.69 C 65.46137084989849 67.69 65.73 67.42137084989848 65.73 67.09 L 65.73 67.09 C 65.73834452059393 66.92663991397266 65.6784956976273 66.76714704039648 65.56474348084423 66.64960308305398 C 65.45099126406114 66.53205912571147 65.29354582255081 66.46701459266146 65.13 66.47 Z" stroke-linecap="round" />
</g>
<g transform="matrix(12.39 0 0 12.39 161.33 617.4)"  >
<path style="stroke: none; stroke-width: 1; stroke-dasharray: none; stroke-linecap: butt; stroke-dashoffset: 0; stroke-linejoin: miter; stroke-miterlimit: 4; fill: rgb(0,0,0); fill-rule: nonzero; opacity: 1;" vector-effect="non-scaling-stroke"  transform=" translate(-19.45, -55.83)" d="M 19.45 54.52 C 19.291796875633853 54.51731820424729 19.139146202357725 54.578292809943896 19.026327422342693 54.68923127695868 C 18.91350864232766 54.800169743973456 18.84997727127105 54.951774148537375 18.849999999999998 55.11000000000001 L 18.849999999999998 56.550000000000004 C 18.85000001084356 56.88137084223092 19.118629157769078 57.149999980366 19.449999999999996 57.149999980366 C 19.781370842230917 57.149999980366 20.049999989156436 56.88137084223092 20.049999999999997 56.550000000000004 L 20.049999999999997 55.11 C 20.05002272872894 54.95177414853737 19.98649135767233 54.800169743973456 19.873672577657302 54.68923127695867 C 19.76085379764227 54.578292809943896 19.608203124366145 54.51731820424729 19.45 54.52 Z" stroke-linecap="round" />
</g>
<g transform="matrix(12.39 0 0 12.39 352.42 617.4)"  >
<path style="stroke: none; stroke-width: 1; stroke-dasharray: none; stroke-linecap: butt; stroke-dashoffset: 0; stroke-linejoin: miter; stroke-miterlimit: 4; fill: rgb(0,0,0); fill-rule: nonzero; opacity: 1;" vector-effect="non-scaling-stroke"  transform=" translate(-34.87, -55.83)" d="M 34.87 54.52 C 34.71179687563385 54.51731820424729 34.559146202357724 54.578292809943896 34.44632742234269 54.68923127695868 C 34.33350864232766 54.800169743973456 34.26997727127105 54.951774148537375 34.269999999999996 55.11000000000001 L 34.269999999999996 56.550000000000004 C 34.269999999999996 56.88137084989848 34.53862915010152 57.150000000000006 34.87 57.150000000000006 C 35.201370849898474 57.150000000000006 35.47 56.88137084989848 35.47 56.550000000000004 L 35.47 55.11 C 35.47002272872894 54.95177414853737 35.40649135767234 54.800169743973456 35.293672577657304 54.68923127695867 C 35.18085379764227 54.578292809943896 35.028203124366144 54.51731820424729 34.87 54.52 Z" stroke-linecap="round" />
</g>
<g transform="matrix(12.39 0 0 12.39 727.4 617.33)"  >
<path style="stroke: none; stroke-width: 1; stroke-dasharray: none; stroke-linecap: butt; stroke-dashoffset: 0; stroke-linejoin: miter; stroke-miterlimit: 4; fill: rgb(0,0,0); fill-rule: nonzero; opacity: 1;" vector-effect="non-scaling-stroke"  transform=" translate(-65.13, -55.83)" d="M 65.13 57.15 C 65.46137084989847 57.15 65.72999999999999 56.881370849898474 65.72999999999999 56.55 L 65.72999999999999 55.11 C 65.72999999999999 54.77862915010152 65.46137084989847 54.51 65.13 54.51 C 64.7986291501015 54.51 64.52999999999999 54.77862915010152 64.52999999999999 55.11 L 64.52999999999999 56.55 C 64.52999999999999 56.70912989390373 64.59321410421924 56.86174224164311 64.70573593128806 56.97426406871193 C 64.81825775835688 57.08678589578075 64.97087010609627 57.15 65.13 57.15 Z" stroke-linecap="round" />
</g>
<g transform="matrix(12.39 0 0 12.39 918.49 617.4)"  >
<path style="stroke: none; stroke-width: 1; stroke-dasharray: none; stroke-linecap: butt; stroke-dashoffset: 0; stroke-linejoin: miter; stroke-miterlimit: 4; fill: rgb(0,0,0); fill-rule: nonzero; opacity: 1;" vector-effect="non-scaling-stroke"  transform=" translate(-80.55, -55.83)" d="M 80.55 54.52 C 80.39179687563386 54.51731820424729 80.23914620235773 54.578292809943896 80.1263274223427 54.68923127695868 C 80.01350864232766 54.80016974397346 79.94997727127105 54.951774148537375 79.95 55.11000000000001 L 79.95 56.550000000000004 C 79.95 56.88137084989848 80.21862915010152 57.150000000000006 80.55000000000001 57.150000000000006 C 80.88137084989849 57.150000000000006 81.15 56.88137084989848 81.15 56.550000000000004 L 81.15 55.11 C 81.15002272872896 54.95177414853737 81.08649135767234 54.800169743973456 80.97367257765731 54.68923127695867 C 80.86085379764228 54.57829280994389 80.70820312436615 54.51731820424728 80.55 54.52 Z" stroke-linecap="round" />
</g>
</svg>