<?xml version="1.0" encoding="UTF-8" standalone="no" ?>
<!DOCTYPE svg PUBLIC "-//W3C//DTD SVG 1.1//EN" "http://www.w3.org/Graphics/SVG/1.1/DTD/svg11.dtd">
<svg xmlns="http://www.w3.org/2000/svg" xmlns:xlink="http://www.w3.org/1999/xlink" version="1.1" width="1080" height="1080" viewBox="0 0 1080 1080" xml:space="preserve">
<desc>Created with Fabric.js 5.2.4</desc>
<defs>
</defs>
<rect x="0" y="0" width="100%" height="100%" fill="transparent"></rect>
<g transform="matrix(0 0 0 0 0 0)" id="18db26ef-5889-4458-b268-cb8bc49d5ca8"  >
</g>
<g transform="matrix(1 0 0 1 540 540)" id="44a443e6-350e-4a13-8869-ad869c172d23"  >
<rect style="stroke: none; stroke-width: 1; stroke-dasharray: none; stroke-linecap: butt; stroke-dashoffset: 0; stroke-linejoin: miter; stroke-miterlimit: 4; fill: rgb(255,0,0); fill-rule: nonzero; opacity: 1; visibility: hidden;" vector-effect="non-scaling-stroke"  x="-540" y="-540" rx="0" ry="0" width="1080" height="1080" />
</g>
<g transform="matrix(0.67 0 0 0.67 3074.7 2510.27)"  >
<path style="stroke: none; stroke-width: 1; stroke-dasharray: none; stroke-linecap: butt; stroke-dashoffset: 0; stroke-linejoin: miter; stroke-miterlimit: 4; fill: rgb(24,81,15); fill-rule: nonzero; opacity: 1;" vector-effect="non-scaling-stroke"  transform=" translate(-349.97, -350.24)" d="M 312 444.3 C 312 448.6 308.5 452.1 304.2 452.1 C 299.9 452.1 296.4 448.6 296.4 444.3 C 296.4 440 299.9 436.5 304.2 436.5 C 308.5 436.6 312 440 312 444.3 z M 394 436.6 C 389.7 436.6 386.2 440.1 386.2 444.40000000000003 C 386.2 448.70000000000005 389.7 452.20000000000005 394 452.20000000000005 C 398.3 452.20000000000005 401.8 448.70000000000005 401.8 444.40000000000003 C 401.8 440 398.3 436.6 394 436.6 z M 518.4 418.6 C 518.1 420.1 516.9 421.3 515.4 421.8 C 510.59999999999997 423.2 508.7 426 508 427.8 C 508 427.8 508 427.8 508 427.90000000000003 L 508 585.7 C 508 588.1 506.1 590 503.7 590 L 456.8 590 C 456.2 590.4 455.40000000000003 590.7 454.6 590.7 L 245.1 590.7 C 244.29999999999998 590.7 243.5 590.5 242.9 590 L 196.2 590 C 193.79999999999998 590 191.89999999999998 588.1 191.89999999999998 585.7 L 191.89999999999998 427.9 L 191.89999999999998 427.9 C 191.2 426.09999999999997 189.39999999999998 423.29999999999995 184.49999999999997 421.9 C 182.99999999999997 421.5 181.89999999999998 420.29999999999995 181.49999999999997 418.7 C 181.19999999999996 417.2 181.69999999999996 415.59999999999997 182.79999999999998 414.59999999999997 C 182.89999999999998 414.49999999999994 183.29999999999998 414.2 183.79999999999998 413.79999999999995 L 183.79999999999998 385.4 C 183.79999999999998 384.79999999999995 183.89999999999998 384.2 184.2 383.7 C 184.6 382.8 185.5 381.7 187.2 380.5 L 187.2 354.8 C 187.2 354.2 187.29999999999998 353.6 187.6 353.1 C 187.79999999999998 352.70000000000005 188 352.3 188.4 351.90000000000003 C 189.4 349.00000000000006 191.8 344.8 197.3 340.90000000000003 L 197.3 301.8 L 194.5 297.90000000000003 C 194 297.20000000000005 193.7 296.3 193.7 295.50000000000006 L 193.7 295.50000000000006 L 193.7 259.70000000000005 C 193.7 258.80000000000007 194 257.90000000000003 194.6 257.1 C 194.9 256.70000000000005 195.7 255.8 197.29999999999998 254.70000000000002 L 197.29999999999998 223 L 194.49999999999997 219.1 C 193.49999999999997 217.7 193.49999999999997 216 194.29999999999998 214.6 C 194.29999999999998 214.4 194.2 214.29999999999998 194.2 214.1 L 194.2 186.1 C 194.2 185.1 194.6 184.2 195.29999999999998 183.5 C 195.7 183 197.2 181.8 200.49999999999997 180.5 L 200.49999999999997 154.3 C 200.49999999999997 152.8 200.39999999999998 138.3 216.49999999999997 130.60000000000002 C 217.39999999999998 128.8 219.69999999999996 123.70000000000002 221.99999999999997 112.80000000000003 C 222.39999999999998 110.90000000000002 224.09999999999997 109.70000000000003 225.99999999999997 109.80000000000003 C 227.89999999999998 110.00000000000003 229.39999999999998 111.60000000000002 229.39999999999998 113.50000000000003 C 229.49999999999997 118.70000000000003 230.7 128.30000000000004 233.39999999999998 131.50000000000003 C 233.7 131.80000000000004 234.79999999999998 132.40000000000003 235.7 132.80000000000004 C 240.1 134.90000000000003 247.29999999999998 138.50000000000003 246 152.60000000000005 L 246 183 C 246.9 183.7 247.5 184.3 247.7 184.6 C 248.2 185.29999999999998 248.5 186.1 248.5 186.9 L 248.5 195.4 C 249.6 192.6 251.2 187.8 252.9 180.20000000000002 C 253.3 178.3 255.1 177.10000000000002 256.9 177.20000000000002 C 258.79999999999995 177.4 260.29999999999995 179.00000000000003 260.29999999999995 180.9 C 260.4 186.1 261.59999999999997 195.70000000000002 264.29999999999995 198.9 C 264.59999999999997 199.20000000000002 265.69999999999993 199.8 266.59999999999997 200.20000000000002 C 270.99999999999994 202.3 278.2 205.9 276.9 220.00000000000003 L 276.9 246.90000000000003 C 280.59999999999997 248.50000000000003 282 250.10000000000002 282.5 250.70000000000005 C 283 251.40000000000003 283.3 252.20000000000005 283.3 253.00000000000006 L 283.3 280.6000000000001 C 283.3 281.00000000000006 283.2 281.4000000000001 283.1 281.80000000000007 C 283.20000000000005 282.80000000000007 282.90000000000003 283.80000000000007 282.40000000000003 284.6000000000001 L 278.6 290.1000000000001 L 278.6 307.2000000000001 L 419.40000000000003 307.2000000000001 L 419.40000000000003 288.2000000000001 L 415.6 282.7000000000001 C 415 281.9000000000001 414.8 280.9000000000001 414.90000000000003 279.9000000000001 C 414.8 279.5000000000001 414.70000000000005 279.1000000000001 414.70000000000005 278.7000000000001 L 414.70000000000005 251.1000000000001 C 414.70000000000005 250.3000000000001 415.00000000000006 249.5000000000001 415.50000000000006 248.8000000000001 C 415.90000000000003 248.2000000000001 417.50000000000006 246.6000000000001 421.1000000000001 245.00000000000009 L 421.1000000000001 218.10000000000008 C 419.80000000000007 204.00000000000009 427.00000000000006 200.50000000000009 431.4000000000001 198.30000000000007 C 432.30000000000007 197.90000000000006 433.4000000000001 197.30000000000007 433.7000000000001 197.00000000000006 C 436.5000000000001 193.70000000000005 437.6000000000001 184.20000000000005 437.7000000000001 179.00000000000006 C 437.7000000000001 177.10000000000005 439.2000000000001 175.50000000000006 441.1000000000001 175.30000000000007 C 443.00000000000006 175.10000000000008 444.7000000000001 176.40000000000006 445.1000000000001 178.30000000000007 C 447.50000000000006 189.80000000000007 450.00000000000006 194.90000000000006 450.80000000000007 196.40000000000006 C 450.9000000000001 196.50000000000006 451.1000000000001 196.60000000000005 451.20000000000005 196.70000000000007 L 451.20000000000005 186.90000000000006 C 451.20000000000005 186.10000000000005 451.50000000000006 185.30000000000007 452.00000000000006 184.60000000000005 C 452.20000000000005 184.30000000000004 452.80000000000007 183.70000000000005 453.70000000000005 183.00000000000006 L 453.70000000000005 152.60000000000005 C 452.40000000000003 138.50000000000006 459.6 135.00000000000006 464.00000000000006 132.80000000000004 C 464.90000000000003 132.40000000000003 466.00000000000006 131.80000000000004 466.30000000000007 131.50000000000003 C 469.1000000000001 128.20000000000002 470.20000000000005 118.70000000000003 470.30000000000007 113.50000000000003 C 470.30000000000007 111.60000000000002 471.80000000000007 110.00000000000003 473.70000000000005 109.80000000000003 C 475.6 109.60000000000002 477.30000000000007 110.90000000000002 477.70000000000005 112.80000000000003 C 480.00000000000006 123.60000000000002 482.30000000000007 128.70000000000002 483.20000000000005 130.60000000000002 C 499.30000000000007 138.3 499.30000000000007 152.8 499.20000000000005 154.3 L 499.20000000000005 180.5 C 502.50000000000006 181.8 504.00000000000006 183.1 504.40000000000003 183.5 C 505.1 184.2 505.50000000000006 185.1 505.50000000000006 186.1 L 505.50000000000006 214.1 C 505.50000000000006 214.29999999999998 505.50000000000006 214.4 505.40000000000003 214.6 C 506.20000000000005 216 506.1 217.7 505.20000000000005 219.1 L 502.40000000000003 223 L 502.40000000000003 254.7 C 504.00000000000006 255.79999999999998 504.8 256.7 505.1 257.09999999999997 C 505.70000000000005 257.79999999999995 506 258.7 506 259.7 L 506 295.5 L 506 295.5 C 506 296.3 505.8 297.2 505.2 297.9 L 502.4 301.79999999999995 L 502.4 340.9 C 508 344.79999999999995 510.29999999999995 349 511.29999999999995 351.9 C 511.59999999999997 352.29999999999995 511.9 352.7 512.0999999999999 353.09999999999997 C 512.3 353.59999999999997 512.4999999999999 354.2 512.4999999999999 354.79999999999995 L 512.4999999999999 380.49999999999994 C 514.1999999999999 381.59999999999997 515.0999999999999 382.79999999999995 515.4999999999999 383.69999999999993 C 515.6999999999999 384.19999999999993 515.8999999999999 384.79999999999995 515.8999999999999 385.3999999999999 L 515.8999999999999 413.7999999999999 C 516.3999999999999 414.1999999999999 516.6999999999998 414.3999999999999 516.8999999999999 414.4999999999999 C 518.2 415.5 518.8 417.1 518.4 418.6 z M 507.6 409.8 L 507.6 387.3 C 505.8 386.3 500.40000000000003 384.2 486.5 383.6 C 480.6 383.3 475.1 383.6 470 384.40000000000003 C 462.6 385.50000000000006 456.9 387.3 453.9 389.40000000000003 L 453.9 410.3 C 459.2 408.6 467.09999999999997 407.5 477.7 407 C 491.8 406.2 501.4 407.9 507.6 409.8 z M 504.9 417.9 C 499.7 416.29999999999995 491.2 414.7 478.09999999999997 415.4 C 467.79999999999995 415.9 461.7 416.9 458.09999999999997 417.9 C 459.59999999999997 419.4 460.79999999999995 421.29999999999995 461.4 423.59999999999997 L 500.7 423.59999999999997 C 501.5 421.8 502.8 419.8 504.9 417.9 z M 307.5 518.8 L 307.5 582.3 L 392.2 582.3 L 392.2 521.0999999999999 C 392.2 520.0999999999999 393 502.4999999999999 379 495.0999999999999 C 370.8 490.7999999999999 354.9 481.8999999999999 349.2 478.69999999999993 C 345.5 480.99999999999994 336.9 485.8999999999999 321.9 492.69999999999993 C 304.59999999999997 500.49999999999994 307.29999999999995 517.4 307.4 518.1999999999999 C 307.5 518.3 307.5 518.6 307.5 518.8 z M 400.3 582.3 L 402.6 582.3 L 402.6 506.9 C 402.6 506.4 403.70000000000005 483.7 386.1 474.4 C 375.90000000000003 469 355.90000000000003 457.79999999999995 349.3 454.09999999999997 C 345.1 456.7 334.6 462.9 315.6 471.4 C 293.8 481.2 297.3 502.5 297.40000000000003 503.4 C 297.40000000000003 503.59999999999997 297.50000000000006 503.9 297.50000000000006 504.09999999999997 L 297.50000000000006 582.3 L 299.40000000000003 582.3 L 299.40000000000003 519.1999999999999 C 298.00000000000006 510.8999999999999 300.3 493.5999999999999 318.6 485.29999999999995 C 338.5 476.29999999999995 346.70000000000005 470.69999999999993 346.8 470.59999999999997 C 348.1 469.7 349.7 469.59999999999997 351.1 470.4 C 351.3 470.5 372.90000000000003 482.59999999999997 382.90000000000003 487.9 C 401.50000000000006 497.79999999999995 400.40000000000003 520.3 400.3 521.3 L 400.3 582.3 z M 410.7 582.3 L 416.09999999999997 582.3 L 416.09999999999997 426.7 L 285.8 426.7 L 285.8 582.3 L 289.5 582.3 L 289.5 504.4 C 289 500.79999999999995 286.6 475.7 312.4 464.09999999999997 C 336.7 453.09999999999997 346.79999999999995 446.2 346.9 446.09999999999997 C 348.2 445.2 349.79999999999995 445.09999999999997 351.2 445.9 C 351.5 446 377.8 460.79999999999995 389.9 467.29999999999995 C 412.09999999999997 479.09999999999997 410.79999999999995 505.99999999999994 410.7 507.19999999999993 L 410.7 582.3 z M 238.6 423.6 C 239.2 421.3 240.4 419.40000000000003 241.9 417.90000000000003 C 238.3 417.00000000000006 232.20000000000002 416.00000000000006 221.9 415.40000000000003 C 208.8 414.70000000000005 200.3 416.3 195.1 417.90000000000003 C 197.2 419.70000000000005 198.5 421.8 199.4 423.6 L 238.6 423.6 z M 205.9 300.3 L 205.9 343 C 205.9 344 205.5 344.9 204.9 345.7 C 207.5 345.4 210.4 345.09999999999997 213.8 345 C 219.5 344.8 225 345 230.10000000000002 345.8 C 232.40000000000003 346.2 234.50000000000003 346.6 236.50000000000003 347 C 236.40000000000003 346.7 236.40000000000003 346.3 236.40000000000003 346 L 236.40000000000003 300.2 C 236.40000000000003 299.09999999999997 236.80000000000004 298 237.60000000000002 297.2 L 238.20000000000002 296.5 C 235.3 295.4 230.4 294.1 222.60000000000002 293.6 C 213.3 293.1 207.40000000000003 294.8 204.20000000000002 296.3 L 205.20000000000002 297.7 C 205.6 298.5 205.9 299.4 205.9 300.3 z M 202.3 261.3 L 202.3 288 C 206.8 286.3 213.5 284.8 223 285.3 C 231.1 285.8 236.7 287.1 240.6 288.5 L 240.6 262.2 C 238.9 260.8 233.6 257.3 220.29999999999998 257.59999999999997 C 209.4 257.6 204.3 260.1 202.3 261.3 z M 239 209 C 239.5 209.1 240 209.2 240.5 209.3 C 240.7 208.70000000000002 240.9 208.20000000000002 241.1 207.60000000000002 L 241.1 188.40000000000003 C 239.2 187.20000000000005 233.6 184.70000000000005 220.29999999999998 184.70000000000005 C 209.29999999999998 184.80000000000004 203.99999999999997 186.70000000000005 201.79999999999998 187.80000000000004 L 201.79999999999998 209.30000000000004 C 206.29999999999998 207.50000000000003 213.2 205.80000000000004 222.99999999999997 206.40000000000003 C 230.1 206.7 235.3 207.8 239 209 z M 244.9 254.7 C 247.3 256.4 248.3 257.9 248.6 258.3 C 249 259 249.2 259.7 249.2 260.5 L 249.2 273.5 C 251.7 273.3 254.29999999999998 273.3 256.9 273.5 C 259.9 273.7 262.5 273.9 264.79999999999995 274.2 C 268.49999999999994 274.4 272.19999999999993 274.9 275.9 275.59999999999997 L 275.9 254.59999999999997 C 275 254.09999999999997 273.5 253.29999999999995 270.79999999999995 252.49999999999997 L 269.49999999999994 252.49999999999997 L 269.49999999999994 252.19999999999996 C 266.19999999999993 251.39999999999995 261.59999999999997 250.89999999999995 255.09999999999994 250.89999999999995 C 251.29999999999993 250.89999999999995 247.89999999999995 251.19999999999996 244.79999999999993 251.69999999999996 L 244.9 254.7 L 244.9 254.7 z M 433.5 272.2 C 435.8 271.9 438.4 271.7 441.4 271.5 C 444.7 271.3 447.9 271.4 450.9 271.7 L 450.9 260.5 C 450.9 259.7 451.09999999999997 259 451.5 258.3 C 451.7 257.90000000000003 452.7 256.40000000000003 455.2 254.70000000000002 L 455.2 250 C 451.8 249.3 447.8 249 443.2 248.9 C 436.7 248.9 432.09999999999997 249.4 428.8 250.20000000000002 L 428.8 250.50000000000003 L 427.6 250.50000000000003 C 424.90000000000003 251.20000000000002 423.3 252.00000000000003 422.40000000000003 252.60000000000002 L 422.40000000000003 273.6 C 426 272.9 429.8 272.4 433.5 272.2 z M 460.9 209 C 464.7 207.8 469.9 206.7 477 206.3 C 486.8 205.70000000000002 493.7 207.4 498.2 209.20000000000002 L 498.2 187.70000000000002 C 496.09999999999997 186.70000000000002 490.8 184.70000000000002 479.7 184.60000000000002 C 466.8 184.50000000000003 460.9 187.00000000000003 458.9 188.3 L 458.9 209.3 C 459.6 209.2 460.2 209.1 460.9 209 z M 479.7 257.5 C 466.7 257.2 461.2 260.7 459.4 262.2 L 459.4 288.5 C 463.29999999999995 287.1 468.9 285.8 477 285.3 C 486.4 284.8 493.2 286.3 497.7 288 L 497.7 261.3 C 495.8 260.1 490.7 257.6 479.7 257.5 z M 494.1 343 L 494.1 300.3 C 494.1 299.40000000000003 494.40000000000003 298.6 494.90000000000003 297.90000000000003 L 495.8 296.6 C 492.5 295.1 486.6 293.40000000000003 477.40000000000003 293.90000000000003 C 469.6 294.3 464.70000000000005 295.6 461.8 296.8 L 462.40000000000003 297.5 C 463.20000000000005 298.3 463.6 299.4 463.6 300.5 L 463.6 346 C 463.6 346.3 463.6 346.7 463.5 347 C 465.5 346.5 467.6 346.1 469.9 345.8 C 475 345 480.4 344.8 486.2 345 C 489.59999999999997 345.1 492.5 345.4 495.09999999999997 345.7 C 494.5 345 494.1 344 494.1 343 z M 251.3 356.4 L 251.3 359.7 L 448.70000000000005 359.7 L 448.70000000000005 356.4 C 448.70000000000005 356.29999999999995 448.70000000000005 356.2 448.70000000000005 356.09999999999997 L 251.3 356.09999999999997 C 251.3 356.2 251.3 356.3 251.3 356.4 z M 455.1 336.6 L 244.9 336.6 L 244.9 344.20000000000005 C 245.8 345.1 246.9 346.30000000000007 247.9 347.80000000000007 L 452 347.80000000000007 L 452.2 347.80000000000007 C 453.2 346.30000000000007 454.4 345.1000000000001 455.2 344.20000000000005 L 455.2 336.6 L 455.1 336.6 z M 455.1 315.2 L 244.9 315.2 L 244.9 328.3 L 455.20000000000005 328.3 L 455.20000000000005 315.2 L 455.1 315.2 z M 251.3 382.5 C 252.10000000000002 383.1 252.8 383.7 253.4 384.3 C 254.20000000000002 385.1 254.6 386.2 254.6 387.3 L 254.6 403.5 L 259.9 403.5 L 259.9 394.2 C 259.4 390.8 260.09999999999997 384.9 265.59999999999997 382.59999999999997 L 269.7 380.9 C 270.8 380.4 272 380.5 273.09999999999997 381 L 276.4 382.6 C 278.79999999999995 383.40000000000003 282.7 386.1 282.5 391.8 C 282.4 394.6 282.4 400.1 282.4 403.6 L 286.29999999999995 403.6 L 286.29999999999995 394.3 C 285.79999999999995 390.90000000000003 286.49999999999994 385 291.99999999999994 382.7 L 296.09999999999997 381 C 297.2 380.5 298.4 380.6 299.49999999999994 381.1 L 302.79999999999995 382.70000000000005 C 305.19999999999993 383.50000000000006 309.09999999999997 386.20000000000005 308.9 391.90000000000003 C 308.79999999999995 394.70000000000005 308.79999999999995 400.20000000000005 308.79999999999995 403.70000000000005 L 312.79999999999995 403.70000000000005 L 312.79999999999995 394.40000000000003 C 312.29999999999995 391.00000000000006 312.99999999999994 385.1 318.49999999999994 382.8 L 322.59999999999997 381.1 C 323.7 380.6 324.9 380.70000000000005 325.99999999999994 381.20000000000005 L 329.29999999999995 382.80000000000007 C 331.69999999999993 383.6000000000001 335.59999999999997 386.30000000000007 335.4 392.00000000000006 C 335.29999999999995 394.80000000000007 335.29999999999995 400.30000000000007 335.29999999999995 403.80000000000007 L 338.69999999999993 403.80000000000007 L 338.69999999999993 394.50000000000006 C 338.19999999999993 391.1000000000001 338.8999999999999 385.20000000000005 344.3999999999999 382.90000000000003 L 348.49999999999994 381.20000000000005 C 349.59999999999997 380.70000000000005 350.79999999999995 380.80000000000007 351.8999999999999 381.30000000000007 L 355.19999999999993 382.9000000000001 C 357.5999999999999 383.7000000000001 361.49999999999994 386.4000000000001 361.29999999999995 392.1000000000001 C 361.19999999999993 394.9000000000001 361.19999999999993 400.4000000000001 361.19999999999993 403.9000000000001 L 365.49999999999994 403.9000000000001 L 365.49999999999994 394.6000000000001 C 364.99999999999994 391.2000000000001 365.69999999999993 385.30000000000007 371.19999999999993 383.00000000000006 L 375.29999999999995 381.30000000000007 C 376.4 380.9000000000001 377.59999999999997 380.9000000000001 378.69999999999993 381.4000000000001 L 381.99999999999994 383.0000000000001 C 384.3999999999999 383.8000000000001 388.29999999999995 386.5000000000001 388.09999999999997 392.2000000000001 C 387.99999999999994 395.0000000000001 387.99999999999994 400.5000000000001 387.99999999999994 404.0000000000001 L 391.69999999999993 404.0000000000001 L 391.69999999999993 394.7000000000001 C 391.19999999999993 391.3000000000001 391.8999999999999 385.4000000000001 397.3999999999999 383.1000000000001 L 401.49999999999994 381.4000000000001 C 402.59999999999997 380.9000000000001 403.79999999999995 381.0000000000001 404.8999999999999 381.5000000000001 L 408.19999999999993 383.10000000000014 C 410.5999999999999 383.90000000000015 414.49999999999994 386.60000000000014 414.29999999999995 392.3000000000001 C 414.19999999999993 395.10000000000014 414.19999999999993 400.60000000000014 414.19999999999993 404.10000000000014 L 417.8999999999999 404.10000000000014 L 417.8999999999999 394.8000000000001 C 417.3999999999999 391.40000000000015 418.0999999999999 385.5000000000001 423.5999999999999 383.2000000000001 L 427.69999999999993 381.5000000000001 C 428.79999999999995 381.0000000000001 429.99999999999994 381.10000000000014 431.0999999999999 381.60000000000014 L 434.3999999999999 383.20000000000016 C 436.7999999999999 384.00000000000017 440.69999999999993 386.70000000000016 440.49999999999994 392.40000000000015 C 440.3999999999999 395.20000000000016 440.3999999999999 400.70000000000016 440.3999999999999 404.20000000000016 L 445.7999999999999 404.20000000000016 L 445.7999999999999 388 C 445.7999999999999 386.9 446.1999999999999 385.8 446.9999999999999 385 C 447.5999999999999 384.4 448.2999999999999 383.8 449.0999999999999 383.2 L 449.0999999999999 368.5 L 251.3 368.5 L 251.3 382.5 z M 425.8 393.8 L 425.8 401.7 L 431.7 402.09999999999997 C 431.7 398.59999999999997 431.7 393.9 431.8 391.4 C 431.8 390.59999999999997 431.6 390.5 431.40000000000003 390.4 C 431.1 390.29999999999995 431.00000000000006 390.29999999999995 430.8 390.2 L 428.90000000000003 389.3 L 426.50000000000006 390.3 C 425.70000000000005 390.6 425.80000000000007 392.7 425.90000000000003 393.2 C 425.8 393.4 425.8 393.6 425.8 393.8 z M 399.7 393.8 L 399.7 401.7 L 405.5 402.09999999999997 C 405.5 398.59999999999997 405.5 393.9 405.6 391.4 C 405.6 390.59999999999997 405.40000000000003 390.5 405.20000000000005 390.4 C 404.90000000000003 390.29999999999995 404.80000000000007 390.29999999999995 404.6 390.2 L 402.70000000000005 389.3 L 400.30000000000007 390.3 C 399.50000000000006 390.6 399.6000000000001 392.7 399.70000000000005 393.2 C 399.7 393.4 399.7 393.6 399.7 393.8 z M 373.6 393.8 L 373.6 401.7 L 379.40000000000003 402.09999999999997 C 379.40000000000003 398.59999999999997 379.40000000000003 393.9 379.50000000000006 391.4 C 379.50000000000006 390.59999999999997 379.30000000000007 390.5 379.1000000000001 390.4 C 378.80000000000007 390.29999999999995 378.7000000000001 390.29999999999995 378.50000000000006 390.2 L 376.6000000000001 389.3 L 374.2000000000001 390.3 C 373.4000000000001 390.6 373.5000000000001 392.7 373.6000000000001 393.2 C 373.6 393.4 373.6 393.6 373.6 393.8 z M 346.9 393.8 L 346.9 401.7 L 352.7 402.09999999999997 C 352.7 398.59999999999997 352.7 393.9 352.8 391.4 C 352.8 390.59999999999997 352.6 390.5 352.40000000000003 390.4 C 352.1 390.29999999999995 352.00000000000006 390.29999999999995 351.8 390.2 L 349.90000000000003 389.3 L 347.50000000000006 390.3 C 346.70000000000005 390.6 346.80000000000007 392.7 346.90000000000003 393.2 C 346.8 393.4 346.9 393.6 346.9 393.8 z M 321 393.8 L 321 401.7 L 326.9 402.09999999999997 C 326.9 398.59999999999997 326.9 393.9 327 391.4 C 327 390.59999999999997 326.8 390.5 326.6 390.4 C 326.3 390.29999999999995 326.20000000000005 390.29999999999995 326 390.2 L 324.1 389.3 L 321.70000000000005 390.3 C 320.90000000000003 390.6 321.00000000000006 392.7 321.1 393.2 C 321 393.4 321 393.6 321 393.8 z M 294.6 393.8 L 294.6 401.7 L 300.40000000000003 402.09999999999997 C 300.40000000000003 398.59999999999997 300.40000000000003 393.9 300.50000000000006 391.4 C 300.50000000000006 390.59999999999997 300.30000000000007 390.5 300.1000000000001 390.4 C 299.80000000000007 390.29999999999995 299.7000000000001 390.29999999999995 299.50000000000006 390.2 L 297.6000000000001 389.3 L 295.2000000000001 390.3 C 294.4000000000001 390.6 294.5000000000001 392.7 294.6000000000001 393.2 C 294.5 393.4 294.6 393.6 294.6 393.8 z M 268.3 393.8 L 268.3 401.7 L 274.2 402.09999999999997 C 274.2 398.59999999999997 274.2 393.9 274.3 391.4 C 274.3 390.59999999999997 274.1 390.5 273.90000000000003 390.4 C 273.6 390.29999999999995 273.50000000000006 390.29999999999995 273.3 390.2 L 271.40000000000003 389.3 L 269.00000000000006 390.3 C 268.20000000000005 390.6 268.30000000000007 392.7 268.40000000000003 393.2 C 268.2 393.4 268.3 393.6 268.3 393.8 z M 254.4 418.4 L 445.6 418.4 C 445.5 418.2 445.5 417.9 445.5 417.7 L 445.3 417.7 L 445.3 411.8 L 254.7 411.8 L 254.7 417.7 L 254.5 417.7 C 254.5 417.9 254.5 418.2 254.4 418.4 z M 277.2 459.2 L 249.2 459.2 L 249.2 487 L 277.2 487 L 277.2 459.2 z M 277.2 426.7 L 249.2 426.7 L 249.2 450.9 L 277.2 450.9 L 277.2 426.7 z M 249.3 526.1 L 277.3 526.1 L 277.3 495.3 L 249.3 495.3 L 249.3 526.1 L 249.3 526.1 z M 424.6 526.1 L 450.6 526.1 L 450.6 495.3 L 424.6 495.3 L 424.6 526.1 z M 450.5 487 L 450.5 459.2 L 424.5 459.2 L 424.5 487 L 450.5 487 z M 450.5 450.9 L 450.5 426.7 L 424.5 426.7 L 424.5 450.9 L 450.5 450.9 z M 504.2 377.1 L 504.2 356.70000000000005 C 502.5 355.80000000000007 497.59999999999997 354.1 485.9 353.6 C 480.7 353.40000000000003 475.79999999999995 353.6 471.29999999999995 354.3 C 464.9 355.3 459.99999999999994 356.8 457.29999999999995 358.5 L 457.29999999999995 378.6 C 460.59999999999997 377.5 464.4 376.70000000000005 468.79999999999995 376 C 474.4 375.1 480.49999999999994 374.8 486.99999999999994 375.1 C 494.4 375.3 500 376.1 504.2 377.1 z M 494.1 250.7 L 494.1 221.29999999999998 C 494.1 220.39999999999998 494.40000000000003 219.6 494.90000000000003 218.89999999999998 L 495.8 217.59999999999997 C 494.6 217.09999999999997 493.2 216.49999999999997 491.3 215.99999999999997 C 485.90000000000003 215.39999999999998 478.90000000000003 214.99999999999997 471.6 215.39999999999998 C 467 215.99999999999997 463.90000000000003 216.89999999999998 461.70000000000005 217.79999999999998 L 462.30000000000007 218.49999999999997 C 463.1000000000001 219.29999999999998 463.50000000000006 220.39999999999998 463.50000000000006 221.49999999999997 L 463.50000000000006 251 C 467.50000000000006 249.9 472.80000000000007 249 479.6000000000001 249.1 C 485.8 249 490.5 249.7 494.1 250.7 z M 461.5 145.7 C 464.8 144.5 469.5 143.39999999999998 476.1 143.2 C 476.40000000000003 143.2 476.8 143.2 477.1 143.2 C 482.3 143.2 486.40000000000003 144.2 489.6 145.39999999999998 C 487.8 142.29999999999998 484.70000000000005 138.99999999999997 479.3 136.59999999999997 C 478.7 136.29999999999995 478.1 135.89999999999998 477.7 135.29999999999995 C 477.5 134.99999999999994 476.59999999999997 133.59999999999997 475.2 130.39999999999995 C 474.4 132.59999999999994 473.4 134.59999999999994 472.09999999999997 136.09999999999994 C 470.79999999999995 137.59999999999994 468.99999999999994 138.49999999999994 467.29999999999995 139.29999999999993 C 464.7 140.6 462.3 141.8 461.5 145.7 z M 461.4 179.2 C 465.59999999999997 178 471.5 177 479.79999999999995 177.1 C 484.69999999999993 177.1 488.69999999999993 177.5 491.99999999999994 178.1 L 491.99999999999994 155.29999999999998 C 490.19999999999993 153.79999999999998 485.3999999999999 150.49999999999997 476.29999999999995 150.7 C 467.79999999999995 150.89999999999998 463.29999999999995 152.89999999999998 461.4 154 L 461.4 179.2 z M 428.9 211.2 C 432.2 210 436.9 208.89999999999998 443.5 208.7 C 446 208.7 448.4 209.2 450.7 210 C 449.59999999999997 206.3 448.09999999999997 203.1 446.2 201.8 C 445.8 201.5 445.4 201.20000000000002 445.2 200.8 C 445 200.5 444.09999999999997 199.10000000000002 442.7 195.9 C 441.9 198.1 440.9 200.1 439.59999999999997 201.6 C 438.29999999999995 203.1 436.49999999999994 204 434.79999999999995 204.79999999999998 C 432.1 206.1 429.7 207.3 428.9 211.2 z M 428.7 242.6 C 432.3 241.9 436.7 241.5 442.3 241.5 C 442.6 241.5 442.90000000000003 241.5 443.1 241.5 C 447.5 241.5 451.5 241.9 455 242.4 L 455 223 L 453.1 221 L 452.40000000000003 221 C 452.40000000000003 220.7 452.40000000000003 220.5 452.3 220.2 L 451.8 219.7 C 451.40000000000003 219.29999999999998 451.1 218.79999999999998 450.90000000000003 218.29999999999998 C 448.40000000000003 216.99999999999997 445.70000000000005 216.1 443.40000000000003 216.2 C 434.90000000000003 216.39999999999998 430.40000000000003 218.39999999999998 428.50000000000006 219.5 L 428.50000000000006 242.6 L 428.7 242.6 z M 428.1 286.5 L 428.1 306.8 L 455.20000000000005 306.8 L 455.20000000000005 302 L 452.00000000000006 298.7 C 451.00000000000006 297.7 450.6000000000001 296.2 450.90000000000003 294.9 L 450.90000000000003 280.29999999999995 C 448.1 279.99999999999994 445.1 279.9 441.90000000000003 280.09999999999997 C 434.20000000000005 280.49999999999994 429.1 281.4 426.00000000000006 282.2 L 427.40000000000003 284.2 C 427.8 284.8 428.1 285.7 428.1 286.5 z M 270.2 306.9 L 270.2 288.5 C 270.2 287.6 270.5 286.8 270.9 286.1 L 272.29999999999995 284.1 C 269.19999999999993 283.3 264.09999999999997 282.5 256.4 282 C 253.89999999999998 281.9 251.39999999999998 281.9 249.09999999999997 282.1 L 249.09999999999997 295 C 249.39999999999998 296.3 248.99999999999997 297.8 247.99999999999997 298.8 L 244.79999999999998 302.1 L 244.79999999999998 307 L 270.2 306.9 L 270.2 306.9 z M 269.5 244.5 L 269.5 221.5 C 267.7 220.4 263.2 218.4 254.6 218.2 C 254.5 218.2 254.5 218.2 254.4 218.2 C 252.3 218.2 250 218.89999999999998 247.8 220 L 245.70000000000002 222.2 C 245.70000000000002 222.5 245.70000000000002 222.79999999999998 245.60000000000002 223.1 L 244.8 223.1 L 244.70000000000002 223.2 L 244.70000000000002 244.2 C 247.8 243.79999999999998 251.20000000000002 243.6 254.9 243.5 C 261 243.3 265.8 243.7 269.5 244.5 z M 248.6 208.9 L 248.6 211.5 C 250.6 210.9 252.7 210.6 254.79999999999998 210.6 C 261.29999999999995 210.79999999999998 266 211.79999999999998 269.4 213.1 C 268.59999999999997 209.2 266.2 208 263.5 206.7 C 261.8 205.89999999999998 260 205 258.7 203.5 C 257.4 202 256.4 200 255.6 197.8 C 254.29999999999998 201.10000000000002 253.29999999999998 202.5 253.1 202.70000000000002 C 252.79999999999998 203.10000000000002 252.5 203.4 252.1 203.70000000000002 C 250.8 204.6 249.6 206.5 248.6 208.9 z M 210.4 145.4 C 213.8 144.1 218.3 143.1 223.9 143.20000000000002 C 230.4 143.4 235.1 144.4 238.5 145.70000000000002 C 237.7 141.8 235.3 140.60000000000002 232.6 139.3 C 230.9 138.5 229.1 137.60000000000002 227.79999999999998 136.10000000000002 C 226.49999999999997 134.60000000000002 225.49999999999997 132.60000000000002 224.7 130.40000000000003 C 223.39999999999998 133.70000000000005 222.39999999999998 135.10000000000002 222.2 135.30000000000004 C 221.79999999999998 135.90000000000003 221.29999999999998 136.30000000000004 220.6 136.60000000000005 C 215.3 138.9 212.2 142.3 210.4 145.4 z M 208.1 178.1 C 211.29999999999998 177.5 215.29999999999998 177.2 220.29999999999998 177.1 C 228.6 177 234.49999999999997 177.9 238.7 179.1 L 238.7 154 C 236.89999999999998 152.9 232.39999999999998 150.9 223.79999999999998 150.7 C 214.79999999999998 150.39999999999998 209.89999999999998 153.7 208.1 155.29999999999998 L 208.1 178.1 z M 205.9 221.3 L 205.9 250.70000000000002 C 209.5 249.70000000000002 214.20000000000002 249.00000000000003 220.3 249.00000000000003 C 227.10000000000002 249.00000000000003 232.4 249.80000000000004 236.4 250.90000000000003 L 236.4 221.40000000000003 C 236.4 220.40000000000003 236.8 219.40000000000003 237.5 218.60000000000002 L 237.2 218.3 C 237.39999999999998 218.10000000000002 237.7 217.9 237.89999999999998 217.70000000000002 C 235.79999999999998 216.9 232.7 216.10000000000002 228.39999999999998 215.50000000000003 C 221.09999999999997 215.10000000000002 214.09999999999997 215.50000000000003 208.7 216.10000000000002 C 206.89999999999998 216.60000000000002 205.39999999999998 217.10000000000002 204.2 217.70000000000002 L 205.1 219.00000000000003 C 205.6 219.6 205.9 220.5 205.9 221.3 z M 195.8 377.1 C 200 376.1 205.60000000000002 375.3 213.10000000000002 375 C 219.50000000000003 374.7 225.60000000000002 375 231.3 375.9 C 235.70000000000002 376.59999999999997 239.5 377.4 242.8 378.5 L 242.8 358.4 C 240.10000000000002 356.7 235.20000000000002 355.2 228.8 354.2 C 224.3 353.5 219.4 353.3 214.20000000000002 353.5 C 202.50000000000003 354 197.60000000000002 355.8 195.9 356.6 L 195.8 377.1 L 195.8 377.1 z M 192.4 409.8 C 198.6 407.8 208.20000000000002 406.2 222.3 406.90000000000003 C 232.9 407.40000000000003 240.8 408.50000000000006 246.10000000000002 410.20000000000005 L 246.10000000000002 389.30000000000007 C 243.10000000000002 387.20000000000005 237.3 385.50000000000006 230.00000000000003 384.30000000000007 C 224.90000000000003 383.50000000000006 219.40000000000003 383.20000000000005 213.50000000000003 383.50000000000006 C 199.70000000000002 384.1000000000001 194.30000000000004 386.20000000000005 192.40000000000003 387.20000000000005 L 192.4 409.8 L 192.4 409.8 z M 200.5 581.4 L 241 581.4 L 241 432.1 L 200.5 432.1 L 200.5 581.4 z M 249.3 582.3 L 277.3 582.3 L 277.3 534.5 L 249.3 534.5 L 249.3 582.3 L 249.3 582.3 z M 450.5 582.3 L 450.5 534.5 L 424.5 534.5 L 424.5 582.3 L 450.5 582.3 z M 499.5 432.1 L 458.8 432.1 L 458.8 581.3 L 499.5 581.3 L 499.5 432.1 z" stroke-linecap="round" />
</g>
<g transform="matrix(0 0 0 0 0 0)"  >
<g style=""   >
</g>
</g>
<g transform="matrix(0 0 0 0 0 0)"  >
<g style=""   >
</g>
</g>
<g transform="matrix(0 0 0 0 0 0)"  >
<g style=""   >
</g>
</g>
<g transform="matrix(0 0 0 0 0 0)"  >
<g style=""   >
</g>
</g>
<g transform="matrix(3.6 0 0 3.6 -1928.74 -1412.95)"  >
<rect style="stroke: none; stroke-width: 1; stroke-dasharray: none; stroke-linecap: butt; stroke-dashoffset: 0; stroke-linejoin: miter; stroke-miterlimit: 4; fill: rgb(255,255,255); fill-opacity: 0; fill-rule: nonzero; opacity: 1;" vector-effect="non-scaling-stroke"  x="-50" y="-50" rx="0" ry="0" width="100" height="100" />
</g>
<g transform="matrix(3.6 0 0 3.6 -164.74 351.05)"  >
<rect style="stroke: none; stroke-width: 1; stroke-dasharray: none; stroke-linecap: butt; stroke-dashoffset: 0; stroke-linejoin: miter; stroke-miterlimit: 4; fill: rgb(255,0,0); fill-rule: nonzero; opacity: 1; visibility: hidden;" vector-effect="non-scaling-stroke"  x="-540" y="-540" rx="0" ry="0" width="1080" height="1080" />
</g>
<g transform="matrix(12.52 0 0 12.52 523.78 520.89)"  >
<path style="stroke: none; stroke-width: 1; stroke-dasharray: none; stroke-linecap: butt; stroke-dashoffset: 0; stroke-linejoin: miter; stroke-miterlimit: 4; fill: rgb(24,81,15); fill-rule: nonzero; opacity: 1;" vector-effect="non-scaling-stroke"  transform=" translate(-50, -51.62)" d="M 88.06 71.25 L 82.56 71.25 L 82.56 51.73 L 83 51.73 C 83.33137084989848 51.73 83.6 51.46137084989847 83.6 51.129999999999995 C 83.6 50.79862915010152 83.33137084989848 50.529999999999994 83 50.529999999999994 L 82.55 50.529999999999994 L 82.55 48.71 C 82.55 48.378629150101524 82.28137084989848 48.11 81.95 48.11 L 81 48.11 L 81 44.56 C 81.01280494747012 42.73977038345072 79.97778308814671 41.074396865441635 78.34 40.28 L 78.34 38.8 C 78.34 38.46862915010152 78.07137084989849 38.199999999999996 77.74000000000001 38.199999999999996 C 77.40862915010153 38.199999999999996 77.14000000000001 38.46862915010152 77.14000000000001 38.8 L 77.14000000000001 40.23 C 75.53359110181748 41.07545703853531 74.51161244837311 42.7251678985897 74.47000000000001 44.54 C 74.47000000000001 44.54 74.47000000000001 44.54 74.47000000000001 44.589999999999996 C 74.47000000000001 44.63999999999999 74.47000000000001 44.589999999999996 74.47000000000001 44.589999999999996 L 74.47000000000001 48.059999999999995 L 73.47000000000001 48.059999999999995 C 73.31004738600136 48.05726516439782 73.15584088823269 48.119600670540166 73.04272077938644 48.23272077938642 C 72.92960067054018 48.34584088823267 72.86726516439785 48.500047386001334 72.87000000000002 48.66 L 72.87000000000002 50.48 L 72.41000000000003 50.48 C 72.07862915010155 50.48 71.81000000000003 50.74862915010152 71.81000000000003 51.08 C 71.81000000000003 51.411370849898475 72.07862915010155 51.68 72.41000000000003 51.68 L 72.87000000000002 51.68 L 72.87000000000002 54.62 L 63.57 54.62 L 63.57 51 C 63.57077452746983 49.111441071682385 62.44573954841784 47.40422015941468 60.71 46.66 L 60.71 45.22 C 60.71 44.88862915010152 60.441370849898476 44.62 60.11 44.62 C 59.77862915010152 44.62 59.51 44.88862915010152 59.51 45.22 L 59.51 46.72 C 58.8668420025515 47.089670070463306 58.30277746595253 47.58237704520337 57.85 48.17 C 57.65146130216276 47.75631067559171 57.36067076045784 47.393677764759694 57 47.11 L 57 44.27 L 57.53 44.27 C 57.86137084989848 44.27 58.13 44.00137084989848 58.13 43.67 C 58.13 43.338629150101525 57.86137084989848 43.07 57.53 43.07 L 56.9 43.07 C 56.6 41.63 55.449999999999996 37.63 51.9 36.51 L 51.9 35.79 C 51.89623299289441 34.88866391825544 51.42235487447193 34.05463842983186 50.65 33.589999999999996 L 50.65 31.4 C 50.65 31.068629150101522 50.381370849898474 30.799999999999997 50.05 30.799999999999997 C 49.71862915010152 30.799999999999997 49.449999999999996 31.068629150101522 49.449999999999996 31.4 L 49.449999999999996 33.61 C 48.667174062199834 34.05945874894388 48.18890332746157 34.89738907620532 48.199999999999996 35.8 L 48.199999999999996 36.459999999999994 C 44.99999999999999 37.38999999999999 43.559999999999995 40.809999999999995 43.199999999999996 43.06999999999999 L 42.589999999999996 43.06999999999999 C 42.25862915010152 43.06999999999999 41.989999999999995 43.33862915010152 41.989999999999995 43.669999999999995 C 41.989999999999995 44.00137084989847 42.25862915010152 44.269999999999996 42.589999999999996 44.269999999999996 L 43.12 44.269999999999996 L 43.12 47.11 C 42.75569101179024 47.392556690978886 42.46140763606706 47.755278061056295 42.26 48.17 C 41.80722253404747 47.58237704520337 41.2431579974485 47.089670070463306 40.6 46.72 L 40.6 45.22 C 40.6 44.88862915010152 40.33137084989848 44.62 40 44.62 C 39.66862915010152 44.62 39.4 44.88862915010152 39.4 45.22 L 39.4 46.64 C 37.63011487478903 47.365390986644755 36.47300523972502 49.08723331049427 36.47 51 L 36.47 54.69 L 27.16 54.69 L 27.16 51.73 L 27.62 51.73 C 27.951370849898478 51.73 28.220000000000002 51.46137084989847 28.220000000000002 51.129999999999995 C 28.220000000000002 50.79862915010152 27.951370849898478 50.529999999999994 27.62 50.529999999999994 L 27.16 50.529999999999994 L 27.16 48.71 C 27.162734835602176 48.55004738600134 27.10039932945983 48.39584088823267 26.98727922061358 48.28272077938642 C 26.874159111767327 48.16960067054017 26.719952613998657 48.10726516439782 26.56 48.11 L 25.56 48.11 L 25.56 44.64 C 25.56 44.64 25.56 44.64 25.56 44.64 C 25.56 44.64 25.56 44.64 25.56 44.59 C 25.5183875516269 42.7751678985897 24.496408898182533 41.125457038535316 22.89 40.28 L 22.89 38.8 C 22.89 38.64087010609627 22.826785895780752 38.48825775835689 22.71426406871193 38.37573593128807 C 22.60174224164311 38.263214104219244 22.449129893903727 38.199999999999996 22.29 38.199999999999996 C 22.13087010609627 38.199999999999996 21.97825775835689 38.263214104219244 21.865735931288068 38.37573593128807 C 21.753214104219246 38.48825775835689 21.689999999999998 38.64087010609627 21.689999999999998 38.8 L 21.689999999999998 40.279999999999994 C 20.052216911853286 41.07439686544163 19.017195052529885 42.739770383450704 19.029999999999998 44.55999999999999 L 19.029999999999998 48.10999999999999 L 18.029999999999998 48.10999999999999 C 17.87087010609627 48.10999999999999 17.718257758356888 48.17321410421924 17.605735931288066 48.285735931288066 C 17.49321410421925 48.398257758356884 17.429999999999996 48.55087010609627 17.429999999999996 48.709999999999994 L 17.429999999999996 50.529999999999994 L 17 50.529999999999994 C 16.668629150101523 50.529999999999994 16.4 50.79862915010152 16.4 51.129999999999995 C 16.4 51.46137084989847 16.668629150101523 51.73 17 51.73 L 17.45 51.73 L 17.45 71.25 L 11.94 71.25 C 11.70900977021996 71.21999140930538 11.48152517119152 71.3263851895585 11.35648328812853 71.52290879946166 C 11.231441405065542 71.71943240936484 11.231441405065542 71.97056759063516 11.356483288128532 72.16709120053834 C 11.48152517119152 72.3636148104415 11.70900977021996 72.47000859069462 11.94 72.44 L 88.06 72.44 C 88.29099022978004 72.47000859069462 88.51847482880848 72.3636148104415 88.64351671187147 72.16709120053834 C 88.76855859493446 71.97056759063516 88.76855859493446 71.71943240936484 88.64351671187147 71.52290879946166 C 88.51847482880848 71.3263851895585 88.29099022978004 71.21999140930538 88.06 71.25 Z M 77.72 66.81 C 77.56004738600134 66.80726516439783 77.40584088823267 66.86960067054018 77.29272077938643 66.98272077938643 C 77.17960067054018 67.09584088823267 77.11726516439784 67.25004738600134 77.12 67.41 L 77.12 69 L 74.12 69 L 74.12 64.41 L 81.4 64.41 L 81.4 69 L 78.4 69 L 78.4 67.41 C 78.40155471157348 67.23598739701953 78.32748337302728 67.0698719129194 78.1969969282815 66.95473681461431 C 78.06651048353572 66.8396017163092 77.89246483653568 66.78679044845676 77.72 66.81 Z M 70.16 69 C 69.94930778470349 68.07726151304067 69.34682972851097 67.29221434891102 68.50999999999999 66.85 C 68.34366302751494 66.76456200754346 68.14633697248505 66.76456200754346 67.97999999999999 66.85 C 67.14409993448685 67.29797362135359 66.53724346477254 68.07925590272231 66.31 69 L 63.59 69 L 63.59 64.41 L 72.88 64.41 L 72.88 69 Z M 68.92999999999999 69 L 67.55 69 C 67.69106632601813 68.63843557938843 67.93428465719633 68.32572629644503 68.25 68.1 C 68.55487012738756 68.33200587612824 68.7901050486474 68.6433462130898 68.93 69 Z M 60.31999999999999 66.79 C 59.98862915010152 66.79 59.71999999999999 67.05862915010152 59.71999999999999 67.39 L 59.71999999999999 69 L 58.13 69 L 58.13 64.41 L 62.39 64.41 L 62.39 69 L 60.92 69 L 60.92 67.41 C 60.92 67.07862915010152 60.65137084989848 66.81 60.32 66.81 Z M 39.71999999999999 66.79 C 39.388629150101515 66.79 39.11999999999999 67.05862915010152 39.11999999999999 67.39 L 39.11999999999999 69 L 37.65 69 L 37.65 64.41 L 41.91 64.41 L 41.91 69 L 40.32 69 L 40.32 67.41 C 40.32 67.07862915010152 40.051370849898476 66.81 39.72 66.81 Z M 33.8 69 C 33.58563722410024 68.07899212336741 32.98420852423399 67.29531230232956 32.15 66.85 C 31.98366302751494 66.76456200754346 31.786336972485056 66.76456200754346 31.619999999999997 66.85 C 30.777772435380392 67.29280234175978 30.1660218777688 68.07569740060795 29.94 69 L 27.16 69 L 27.16 64.41 L 36.45 64.41 L 36.45 69 Z M 32.559999999999995 69 L 31.18 69 C 31.321066326018126 68.63843557938843 31.564284657196325 68.32572629644503 31.88 68.1 C 32.19080561844048 68.32602617467823 32.427478776456894 68.6392700602882 32.56 69 Z M 22.32 66.81 C 21.988629150101527 66.81 21.720000000000002 67.07862915010152 21.72 67.41 L 21.72 69 L 18.72 69 L 18.72 64.41 L 26 64.41 L 26 69 L 23 69 L 23 67.41 C 23.00503100607073 67.23487330445231 22.93197087652128 67.06656866155863 22.800600074941315 66.95065324839985 C 22.669229273361346 66.83473783524104 22.49313741311439 66.78320248713788 22.32 66.81 Z M 37.65 56.29 C 37.65 56.29 37.65 56.29 37.65 56.21 L 37.65 51.66 L 41.91 51.66 L 41.91 52.43 C 41.90566392441569 52.44976498060659 41.90566392441569 52.470235019393414 41.91 52.49 L 41.91 57.4 L 37.65 57.4 Z M 44.75 47.73 L 55.29 47.73 C 56.130789130520554 47.72725497344158 56.83211431360934 48.37195141503873 56.9 49.209999999999994 L 51.48 49.209999999999994 C 51.16819398808722 48.79092841539238 50.76453837934649 48.44884739103583 50.3 48.209999999999994 C 50.13223568403026 48.13068421032039 49.93776431596973 48.13068421032039 49.769999999999996 48.209999999999994 C 49.30199194821314 48.452031736732636 48.89245889792809 48.79330927863684 48.56999999999999 49.209999999999994 L 43.14 49.209999999999994 C 43.20788568639066 48.37195141503873 43.909210869479445 47.72725497344158 44.75 47.73 Z M 49.42 44.269999999999996 L 49.42 46.529999999999994 L 47.42 46.529999999999994 L 47.42 44.27 Z M 50.620000000000005 46.529999999999994 L 50.620000000000005 44.27 L 52.620000000000005 44.27 L 52.620000000000005 46.53 Z M 81.36 63.21 L 78.36 63.21 L 78.36 61.64 C 78.36 61.308629150101524 78.09137084989848 61.04 77.76 61.04 C 77.42862915010153 61.04 77.16000000000001 61.308629150101524 77.16000000000001 61.64 L 77.16000000000001 63.21 L 74.16000000000001 63.21 L 74.16000000000001 58.6 L 81.44000000000001 58.6 Z M 72.88 63.21 L 70.16 63.21 C 69.93278199255322 62.30764034451701 69.33298240798186 61.54425905506256 68.50999999999999 61.11 C 68.34223568403026 61.030684210320395 68.14776431596972 61.030684210320395 67.97999999999999 61.11 C 67.15744214009835 61.5496131178402 66.55309239770584 62.309573871746956 66.30999999999999 63.21 L 63.59 63.21 L 63.59 58.6 L 72.88 58.6 Z M 68.88 63.21 L 67.57 63.21 C 67.71801779125408 62.87182423830032 67.95256413788535 62.57864130501124 68.25 62.36 C 68.53741948964166 62.58146765629306 68.76157562156216 62.874594905727555 68.9 63.21 Z M 60.32 61 C 60.160870106096276 61 60.00825775835689 61.06321410421925 59.89573593128807 61.175735931288074 C 59.78321410421925 61.28825775835689 59.72 61.44087010609628 59.72 61.6 L 59.72 63.17 L 58.13 63.17 L 58.13 58.6 L 62.39 58.6 L 62.39 63.21 L 60.92 63.21 L 60.92 61.64 C 60.93108771235536 61.47406050468275 60.87280315456619 61.31096281339167 60.75905723982317 61.18963383766578 C 60.64531132508015 61.06830486193989 60.486309099449684 60.99962998425003 60.32 61 Z M 49.23 50.87 C 49.25336987836787 50.28763284790015 49.549812818319545 49.75033001923774 50.029999999999994 49.419999999999995 C 50.50626097975741 49.751374316031985 50.79598724666759 50.28996801733938 50.809999999999995 50.87 L 50.809999999999995 51.76 L 49.23 51.76 Z M 56.91 53.089999999999996 L 56.91 54.669999999999995 L 43.13 54.669999999999995 L 43.13 53.09 Z M 45.43 69 L 43.11 69 L 43.11 55.87 L 45.43 55.87 L 45.43 69 Z M 46.63 55.85 L 53.410000000000004 55.85 L 53.410000000000004 59.910000000000004 C 52.56346553866727 58.924110895862604 51.37964555620036 58.289412230564075 50.09 58.13 L 50 58.13 C 48.710354443799645 58.289412230564075 47.52653446133273 58.924110895862604 46.68 59.910000000000004 Z M 54.63 63.010000000000005 L 54.63 55.87 L 56.95 55.87 L 56.95 69 L 54.61 69 Z M 62.39 57.38 L 58.13 57.38 L 58.13 52.49 C 58.13433607558431 52.470235019393414 58.13433607558431 52.44976498060659 58.13 52.43 L 58.13 51.66 L 62.39 51.66 Z M 56.93 51.870000000000005 L 52 51.870000000000005 L 52 50.870000000000005 C 52.0108985210887 50.71686032606111 52.0108985210887 50.5631396739389 52 50.410000000000004 L 56.95 50.410000000000004 Z M 48.1 50.39000000000001 C 48.0891014789113 50.5431396739389 48.0891014789113 50.69686032606111 48.1 50.85000000000001 L 48.1 51.85000000000001 L 43.2 51.85000000000001 L 43.2 50.41 Z M 41.91 58.6 L 41.91 63.21 L 40.32 63.21 L 40.32 61.64 C 40.32 61.308629150101524 40.051370849898476 61.04 39.72 61.04 C 39.38862915010152 61.04 39.12 61.308629150101524 39.12 61.64 L 39.12 63.21 L 37.65 63.21 L 37.65 58.6 Z M 36.449999999999996 63.21 L 33.79 63.21 C 33.56165810732082 62.31116368755574 32.966714339955885 61.54934544885674 32.15 61.11 C 31.982235684030265 61.030684210320395 31.78776431596973 61.030684210320395 31.619999999999997 61.11 C 30.81089704117988 61.55359727543456 30.22368668525923 62.31479588496133 30 63.21 L 27.16 63.21 L 27.16 58.6 L 36.45 58.6 Z M 32.529999999999994 63.21 L 31.21 63.21 C 31.35096796089134 62.870473957241046 31.58279039730017 62.576370866274615 31.880000000000003 62.36 C 32.17322865067559 62.575614292872 32.39874655159748 62.87052231715448 32.53 63.21 Z M 25.959999999999994 63.21 L 22.959999999999994 63.21 L 22.959999999999994 61.64 C 22.959999999999994 61.480870106096276 22.896785895780745 61.32825775835689 22.784264068711924 61.21573593128807 C 22.671742241643102 61.10321410421925 22.51912989390372 61.04 22.359999999999992 61.04 C 22.200870106096264 61.04 22.048257758356883 61.10321410421925 21.93573593128806 61.21573593128807 C 21.82321410421924 61.32825775835689 21.75999999999999 61.480870106096276 21.75999999999999 61.64 L 21.75999999999999 63.21 L 18.75999999999999 63.21 L 18.75999999999999 58.6 L 26 58.6 Z M 46.63 63 C 46.713111627816474 61.12438960705309 48.13696738732502 59.58223129185838 50 59.35 C 51.8787881015034 59.564149308000246 53.32393392684493 61.11100627647431 53.41 63 L 53.41 69 L 46.63 69 Z M 77.63 41.269999999999996 C 78.76045152077698 41.75085699342826 79.55961342671633 42.784843724809505 79.74 44 L 75.74 44 C 75.94292998832408 42.85770081451762 76.6476389846255 41.866703788468755 77.66 41.3 Z M 75.63 45.209999999999994 L 79.75999999999999 45.209999999999994 L 79.75999999999999 48.07999999999999 L 78.32 48.07999999999999 L 78.32 46.84 C 78.32 46.50862915010153 78.05137084989848 46.24 77.72 46.24 C 77.56004738600134 46.237265164397826 77.40584088823267 46.29960067054017 77.29272077938643 46.412720779386426 C 77.17960067054017 46.52584088823268 77.11726516439782 46.68004738600134 77.12 46.84 L 77.12 48.11000000000001 L 75.65 48.11000000000001 Z M 74.06 49.279999999999994 L 81.34 49.279999999999994 L 81.34 50.49999999999999 L 74.08 50.49999999999999 Z M 81.34 51.699999999999996 L 81.34 57.4 L 74.08 57.4 L 74.08 51.73 Z M 72.86 55.839999999999996 L 72.86 57.4 L 63.59 57.4 L 63.59 55.87 Z M 60.16 47.69 C 61.29991549601562 48.17082825629708 62.10962534293191 49.20755955561981 62.3 50.43 L 58.16 50.43 C 58.383814017303145 49.265438991979394 59.12790862340229 48.26717345607411 60.18 47.72 Z M 55.269999999999996 46.5 L 53.8 46.5 L 53.8 44.27 L 55.8 44.27 L 55.8 46.580000000000005 C 55.631943725924636 46.54737965596663 55.46119167459069 46.53063925877703 55.29 46.53 Z M 49.37 35.8 C 49.35407022760228 35.32502613148875 49.59469350111572 34.878154337820945 50 34.63 C 50.39038546307194 34.888563445499656 50.62945179441514 35.3218711710592 50.64 35.79 L 50.64 36.28 C 50.38479653834874 36.244321091931674 50.127649842508966 36.224283687061046 49.86999999999999 36.22 C 49.68 36.22 49.51 36.22 49.339999999999996 36.22 Z M 49.9 37.419999999999995 C 53.989999999999995 37.419999999999995 55.3 41.419999999999995 55.67 43.06999999999999 L 44.37 43.06999999999999 C 44.72 41.44 46 37.42 49.9 37.42 Z M 44.25 44.269999999999996 L 46.25 44.269999999999996 L 46.25 46.529999999999994 L 44.75 46.529999999999994 C 44.58368422271905 46.51470535200985 44.41631577728095 46.51470535200985 44.25 46.529999999999994 Z M 39.86 47.72 C 40.90682185506882 48.28377035766819 41.64213608561264 49.29115085351323 41.86 50.46 L 37.72 50.46 C 37.902937555264096 49.234351938827395 38.71517085998659 48.19438967016402 39.86 47.72 Z M 36.45 55.87 L 36.45 57.4 L 27.16 57.4 L 27.16 55.87 Z M 22.38 41.3 C 23.429772236848713 41.860380671915145 24.16626376775179 42.869374069252366 24.38 44.04 L 20.3 44.04 C 20.47128125288783 42.82777071427922 21.258435493605457 41.790846377949265 22.379999999999995 41.3 Z M 20.259999999999998 45.239999999999995 L 24.389999999999997 45.239999999999995 L 24.389999999999997 48.10999999999999 L 22.92 48.10999999999999 L 22.92 46.84 C 22.922734835602178 46.68004738600134 22.86039932945983 46.52584088823267 22.74727922061358 46.412720779386426 C 22.634159111767328 46.29960067054017 22.47995261399866 46.237265164397826 22.32 46.24 C 22.160870106096272 46.24 22.00825775835689 46.30321410421925 21.89573593128807 46.415735931288076 C 21.783214104219248 46.528257758356894 21.72 46.68087010609628 21.72 46.84 L 21.72 48.11000000000001 L 20.26 48.11000000000001 Z M 18.68 49.309999999999995 L 26 49.309999999999995 L 26 50.529999999999994 L 18.68 50.529999999999994 Z M 26 51.73 L 26 57.4 L 18.68 57.4 L 18.68 51.73 Z M 18.68 71.25 L 18.68 70.25 L 81.36 70.25 L 81.36 71.25 Z" stroke-linecap="round" />
</g>
<g transform="matrix(12.52 0 0 12.52 182.75 561.42)"  >
<path style="stroke: none; stroke-width: 1; stroke-dasharray: none; stroke-linecap: butt; stroke-dashoffset: 0; stroke-linejoin: miter; stroke-miterlimit: 4; fill: rgb(0,0,0); fill-rule: nonzero; opacity: 1;" vector-effect="non-scaling-stroke"  transform=" translate(-22.33, -54.57)" d="M 22.32 55.51 C 22.7010783184995 55.514054253477944 23.046893591043904 55.28761900791382 23.195543779528954 54.93670556664228 C 23.344193968014007 54.585792125370745 23.26625867842174 54.17985221135044 22.998225258845235 53.90893671199354 C 22.730191839268727 53.638021212636644 22.325108650388128 53.55574890110373 21.97262548239052 53.70063761039483 C 21.620142314392908 53.84552631968593 21.390021565785013 54.18890011632567 21.39 54.57 C 21.38997084190871 55.08526736412255 21.80476179314374 55.50451843311279 22.32 55.51 Z" stroke-linecap="round" />
</g>
<g transform="matrix(12.52 0 0 12.52 400.5 560.92)"  >
<path style="stroke: none; stroke-width: 1; stroke-dasharray: none; stroke-linecap: butt; stroke-dashoffset: 0; stroke-linejoin: miter; stroke-miterlimit: 4; fill: rgb(0,0,0); fill-rule: nonzero; opacity: 1;" vector-effect="non-scaling-stroke"  transform=" translate(-39.72, -54.53)" d="M 39.72 53.43 C 39.560870106096274 53.43 39.40825775835689 53.49321410421925 39.29573593128807 53.60573593128807 C 39.183214104219246 53.71825775835689 39.12 53.87087010609628 39.12 54.03 L 39.12 55.03 C 39.12 55.36137084989848 39.38862915010152 55.63 39.72 55.63 C 40.051370849898476 55.63 40.32 55.36137084989848 40.32 55.03 L 40.32 54 C 40.30400023303578 53.68039989297621 40.04000009494045 53.42959976178565 39.72 53.43 Z" stroke-linecap="round" />
</g>
<g transform="matrix(12.52 0 0 12.52 876.31 561.42)"  >
<path style="stroke: none; stroke-width: 1; stroke-dasharray: none; stroke-linecap: butt; stroke-dashoffset: 0; stroke-linejoin: miter; stroke-miterlimit: 4; fill: rgb(0,0,0); fill-rule: nonzero; opacity: 1;" vector-effect="non-scaling-stroke"  transform=" translate(-77.72, -54.57)" d="M 77.72 55.51 C 78.1001945101212 55.51 78.44295262046107 55.280976352697316 78.58844676056061 54.92972242642318 C 78.73394090066016 54.57846850014905 78.65351849059195 54.174157741961245 78.38468037431535 53.90531962568464 C 78.11584225803875 53.63648150940804 77.71153149985095 53.55605909933984 77.36027757357681 53.70155323943939 C 77.00902364730268 53.847047379538935 76.78 54.1898054898788 76.78 54.57 C 76.78 55.089147664840944 77.20085233515906 55.51 77.72 55.51 Z" stroke-linecap="round" />
</g>
<g transform="matrix(12.52 0 0 12.52 658.43 560.73)"  >
<path style="stroke: none; stroke-width: 1; stroke-dasharray: none; stroke-linecap: butt; stroke-dashoffset: 0; stroke-linejoin: miter; stroke-miterlimit: 4; fill: rgb(0,0,0); fill-rule: nonzero; opacity: 1;" vector-effect="non-scaling-stroke"  transform=" translate(-60.32, -54.52)" d="M 60.32 55.63 C 60.479129893903725 55.63 60.63174224164311 55.566785895780754 60.74426406871193 55.45426406871193 C 60.85678589578075 55.34174224164311 60.92 55.189129893903726 60.92 55.03 L 60.92 54 C 60.92 53.66862915010152 60.65137084989848 53.4 60.32 53.4 C 59.988629150101524 53.4 59.72 53.66862915010152 59.72 54 L 59.72 55 C 59.71177652722852 55.16426116356059 59.771341312506586 55.32469686497483 59.88476674854456 55.443793572814705 C 59.998192184582535 55.56289028065458 60.15553324640366 55.630205718694484 60.32 55.63 Z" stroke-linecap="round" />
</g>
</svg>